<svg width="25" height="24" viewBox="0 0 25 24" fill="none" xmlns="http://www.w3.org/2000/svg">
<path d="M22.7197 12C22.7197 15.31 20.0297 18 16.7197 18C15.1797 18 13.7797 17.42 12.7197 16.46C13.9497 15.37 14.7197 13.77 14.7197 12C14.7197 10.23 13.9497 8.63 12.7197 7.54C13.7797 6.58 15.1797 6 16.7197 6C20.0297 6 22.7197 8.69 22.7197 12Z" stroke="#212121" stroke-width="1.5" stroke-linecap="round" stroke-linejoin="round"/>
<path d="M4.18973 15.92C3.27973 14.87 2.71973 13.5 2.71973 12C2.71973 8.69 5.40973 6 8.71973 6C10.2597 6 11.6597 6.58 12.7197 7.54C13.9497 8.63 14.7197 10.23 14.7197 12C14.7197 13.77 13.9497 15.37 12.7197 16.46C11.6597 17.42 10.2597 18 8.71973 18" stroke="#212121" stroke-width="1.5" stroke-linecap="round" stroke-linejoin="round"/>
</svg>
