<svg width="28" height="28" viewBox="0 0 28 28" fill="none" xmlns="http://www.w3.org/2000/svg">
<path d="M2.29785 6.94175V5.93842C2.29785 2.88175 4.57285 1.49342 7.36118 2.85841L12.5412 5.40175C13.6612 5.95008 14.5829 7.40841 14.5829 8.64508V25.6667H4.75952C3.40618 25.6667 2.29785 24.5817 2.29785 23.2517V11.6901" stroke="#3F21B5" stroke-width="1.5" stroke-linecap="round" stroke-linejoin="round"/>
<path d="M25.6313 17.5701V21.9801C25.6313 24.5001 24.4647 25.6667 21.9447 25.6667H14.583V12.1567L15.1313 12.2734L20.3813 13.4517L22.7497 13.9767C24.2897 14.3151 25.5497 15.1084 25.6197 17.3484C25.6313 17.4184 25.6313 17.4884 25.6313 17.5701Z" stroke="#3F21B5" stroke-width="1.5" stroke-linecap="round" stroke-linejoin="round"/>
<path d="M6.41699 10.5H10.4653" stroke="#3F21B5" stroke-width="1.5" stroke-linecap="round" stroke-linejoin="round"/>
<path d="M6.41699 15.1665H10.4653" stroke="#3F21B5" stroke-width="1.5" stroke-linecap="round" stroke-linejoin="round"/>
<path d="M20.3818 13.4518V17.2084C20.3818 18.6551 19.2035 19.8334 17.7568 19.8334C16.3102 19.8334 15.1318 18.6551 15.1318 17.2084V12.2734L20.3818 13.4518Z" stroke="#3F21B5" stroke-width="1.5" stroke-linecap="round" stroke-linejoin="round"/>
<path d="M25.6202 17.3483C25.5502 18.725 24.4068 19.8333 23.0068 19.8333C21.5602 19.8333 20.3818 18.655 20.3818 17.2083V13.4517L22.7502 13.9767C24.2902 14.315 25.5502 15.1083 25.6202 17.3483Z" stroke="#3F21B5" stroke-width="1.5" stroke-linecap="round" stroke-linejoin="round"/>
</svg>
