<svg width="28" height="28" viewBox="0 0 28 28" fill="none" xmlns="http://www.w3.org/2000/svg">
<path d="M14.0003 25.6666C18.1887 25.6666 21.5837 22.715 21.5837 19.075V14.7583C21.5837 18.3983 18.1887 21 14.0003 21C9.81199 21 6.41699 18.3983 6.41699 14.7583V19.075C6.41699 21.07 7.43199 22.855 9.04199 24.0566" stroke="#3F21B5" stroke-width="1.5" stroke-linecap="round" stroke-linejoin="round"/>
<path d="M21.5837 8.92516C21.5837 9.98683 21.292 10.9668 20.7787 11.8068C19.5303 13.8602 16.9637 15.1668 14.0003 15.1668C11.037 15.1668 8.47033 13.8602 7.222 11.8068C6.70866 10.9668 6.41699 9.98683 6.41699 8.92516C6.41699 7.10516 7.26865 5.46016 8.63365 4.27016C10.0103 3.0685 11.9003 2.3335 14.0003 2.3335C16.1003 2.3335 17.9903 3.0685 19.367 4.2585C20.732 5.46016 21.5837 7.10516 21.5837 8.92516Z" stroke="#3F21B5" stroke-width="1.5" stroke-linecap="round" stroke-linejoin="round"/>
<path d="M21.5837 8.92516V14.7585C21.5837 18.3985 18.1887 21.0002 14.0003 21.0002C9.81199 21.0002 6.41699 18.3985 6.41699 14.7585V8.92516C6.41699 5.28516 9.81199 2.3335 14.0003 2.3335C16.1003 2.3335 17.9903 3.0685 19.367 4.2585C20.732 5.46016 21.5837 7.10516 21.5837 8.92516Z" stroke="#3F21B5" stroke-width="1.5" stroke-linecap="round" stroke-linejoin="round"/>
</svg>
