<svg width="227" height="229" viewBox="0 0 227 229" fill="none" xmlns="http://www.w3.org/2000/svg">
<path d="M6.55651e-07 0H226.5V224H62.0184C47.2515 224 35.2805 212.029 35.2805 197.262V192.16C35.2805 183.739 28.4542 176.913 20.0336 176.913C8.96937 176.913 3.32411e-08 167.943 7.42461e-08 156.879L6.55651e-07 0Z" fill="#FFD97C"/>
<path d="M111.319 53.928L109.207 48.156C109.103 47.9 108.995 47.596 108.883 47.244C108.771 46.892 108.659 46.512 108.547 46.104C108.443 46.512 108.335 46.896 108.223 47.256C108.111 47.608 108.003 47.916 107.899 48.18L105.799 53.928H111.319ZM117.019 60.48H114.523C114.243 60.48 114.015 60.412 113.839 60.276C113.663 60.132 113.531 59.956 113.443 59.748L112.147 56.208H104.959L103.663 59.748C103.599 59.932 103.475 60.1 103.291 60.252C103.107 60.404 102.879 60.48 102.607 60.48H100.087L106.915 43.128H110.203L117.019 60.48ZM121.323 42.648V60.48H118.359V42.648H121.323ZM127.277 42.648V60.48H124.313V42.648H127.277ZM130.134 51.996H136.35V54.468H130.134V51.996ZM142.255 48.168V60.48H139.279V48.168H142.255ZM142.663 44.58C142.663 44.836 142.611 45.076 142.507 45.3C142.403 45.524 142.263 45.72 142.087 45.888C141.919 46.056 141.719 46.192 141.487 46.296C141.255 46.392 141.007 46.44 140.743 46.44C140.487 46.44 140.243 46.392 140.011 46.296C139.787 46.192 139.591 46.056 139.423 45.888C139.255 45.72 139.119 45.524 139.015 45.3C138.919 45.076 138.871 44.836 138.871 44.58C138.871 44.316 138.919 44.068 139.015 43.836C139.119 43.604 139.255 43.404 139.423 43.236C139.591 43.068 139.787 42.936 140.011 42.84C140.243 42.736 140.487 42.684 140.743 42.684C141.007 42.684 141.255 42.736 141.487 42.84C141.719 42.936 141.919 43.068 142.087 43.236C142.263 43.404 142.403 43.604 142.507 43.836C142.611 44.068 142.663 44.316 142.663 44.58ZM148.049 49.68C148.297 49.432 148.557 49.204 148.829 48.996C149.109 48.78 149.401 48.6 149.705 48.456C150.017 48.304 150.349 48.188 150.701 48.108C151.053 48.02 151.437 47.976 151.853 47.976C152.525 47.976 153.121 48.092 153.641 48.324C154.161 48.548 154.593 48.868 154.937 49.284C155.289 49.692 155.553 50.184 155.729 50.76C155.913 51.328 156.005 51.956 156.005 52.644V60.48H153.041V52.644C153.041 51.892 152.869 51.312 152.525 50.904C152.181 50.488 151.657 50.28 150.953 50.28C150.441 50.28 149.961 50.396 149.513 50.628C149.065 50.86 148.641 51.176 148.241 51.576V60.48H145.277V48.168H147.089C147.473 48.168 147.725 48.348 147.845 48.708L148.049 49.68ZM158.727 51.996H164.943V54.468H158.727V51.996ZM184.793 51.804C184.793 53.076 184.581 54.256 184.157 55.344C183.741 56.424 183.149 57.36 182.381 58.152C181.613 58.944 180.689 59.564 179.609 60.012C178.529 60.452 177.329 60.672 176.009 60.672C174.697 60.672 173.501 60.452 172.421 60.012C171.341 59.564 170.413 58.944 169.637 58.152C168.869 57.36 168.273 56.424 167.849 55.344C167.425 54.256 167.213 53.076 167.213 51.804C167.213 50.532 167.425 49.356 167.849 48.276C168.273 47.188 168.869 46.248 169.637 45.456C170.413 44.664 171.341 44.048 172.421 43.608C173.501 43.16 174.697 42.936 176.009 42.936C176.889 42.936 177.717 43.04 178.493 43.248C179.269 43.448 179.981 43.736 180.629 44.112C181.277 44.48 181.857 44.932 182.369 45.468C182.889 45.996 183.329 46.588 183.689 47.244C184.049 47.9 184.321 48.612 184.505 49.38C184.697 50.148 184.793 50.956 184.793 51.804ZM181.493 51.804C181.493 50.852 181.365 50 181.109 49.248C180.853 48.488 180.489 47.844 180.017 47.316C179.545 46.788 178.969 46.384 178.289 46.104C177.617 45.824 176.857 45.684 176.009 45.684C175.161 45.684 174.397 45.824 173.717 46.104C173.045 46.384 172.469 46.788 171.989 47.316C171.517 47.844 171.153 48.488 170.897 49.248C170.641 50 170.513 50.852 170.513 51.804C170.513 52.756 170.641 53.612 170.897 54.372C171.153 55.124 171.517 55.764 171.989 56.292C172.469 56.812 173.045 57.212 173.717 57.492C174.397 57.772 175.161 57.912 176.009 57.912C176.857 57.912 177.617 57.772 178.289 57.492C178.969 57.212 179.545 56.812 180.017 56.292C180.489 55.764 180.853 55.124 181.109 54.372C181.365 53.612 181.493 52.756 181.493 51.804ZM189.72 49.68C189.968 49.432 190.228 49.204 190.5 48.996C190.78 48.78 191.072 48.6 191.376 48.456C191.688 48.304 192.02 48.188 192.372 48.108C192.724 48.02 193.108 47.976 193.524 47.976C194.196 47.976 194.792 48.092 195.312 48.324C195.832 48.548 196.264 48.868 196.608 49.284C196.96 49.692 197.224 50.184 197.4 50.76C197.584 51.328 197.676 51.956 197.676 52.644V60.48H194.712V52.644C194.712 51.892 194.54 51.312 194.196 50.904C193.852 50.488 193.328 50.28 192.624 50.28C192.112 50.28 191.632 50.396 191.184 50.628C190.736 50.86 190.312 51.176 189.912 51.576V60.48H186.948V48.168H188.76C189.144 48.168 189.396 48.348 189.516 48.708L189.72 49.68ZM208.427 52.908C208.427 52.524 208.371 52.164 208.259 51.828C208.155 51.484 207.995 51.184 207.779 50.928C207.563 50.672 207.287 50.472 206.951 50.328C206.623 50.176 206.239 50.1 205.799 50.1C204.943 50.1 204.267 50.344 203.771 50.832C203.283 51.32 202.971 52.012 202.835 52.908H208.427ZM202.775 54.696C202.823 55.328 202.935 55.876 203.111 56.34C203.287 56.796 203.519 57.176 203.807 57.48C204.095 57.776 204.435 58 204.827 58.152C205.227 58.296 205.667 58.368 206.147 58.368C206.627 58.368 207.039 58.312 207.383 58.2C207.735 58.088 208.039 57.964 208.295 57.828C208.559 57.692 208.787 57.568 208.979 57.456C209.179 57.344 209.371 57.288 209.555 57.288C209.803 57.288 209.987 57.38 210.107 57.564L210.959 58.644C210.631 59.028 210.263 59.352 209.855 59.616C209.447 59.872 209.019 60.08 208.571 60.24C208.131 60.392 207.679 60.5 207.215 60.564C206.759 60.628 206.315 60.66 205.883 60.66C205.027 60.66 204.231 60.52 203.495 60.24C202.759 59.952 202.119 59.532 201.575 58.98C201.031 58.42 200.603 57.732 200.291 56.916C199.979 56.092 199.823 55.14 199.823 54.06C199.823 53.22 199.959 52.432 200.231 51.696C200.503 50.952 200.891 50.308 201.395 49.764C201.907 49.212 202.527 48.776 203.255 48.456C203.991 48.136 204.819 47.976 205.739 47.976C206.515 47.976 207.231 48.1 207.887 48.348C208.543 48.596 209.107 48.96 209.579 49.44C210.051 49.912 210.419 50.496 210.683 51.192C210.955 51.88 211.091 52.668 211.091 53.556C211.091 54.004 211.043 54.308 210.947 54.468C210.851 54.62 210.667 54.696 210.395 54.696H202.775ZM77.5237 75.696V80.832H84.0277V83.412H77.5237V90.48H74.2837V73.128H85.2277V75.696H77.5237ZM90.458 78.168V90.48H87.482V78.168H90.458ZM90.866 74.58C90.866 74.836 90.814 75.076 90.71 75.3C90.606 75.524 90.466 75.72 90.29 75.888C90.122 76.056 89.922 76.192 89.69 76.296C89.458 76.392 89.21 76.44 88.946 76.44C88.69 76.44 88.446 76.392 88.214 76.296C87.99 76.192 87.794 76.056 87.626 75.888C87.458 75.72 87.322 75.524 87.218 75.3C87.122 75.076 87.074 74.836 87.074 74.58C87.074 74.316 87.122 74.068 87.218 73.836C87.322 73.604 87.458 73.404 87.626 73.236C87.794 73.068 87.99 72.936 88.214 72.84C88.446 72.736 88.69 72.684 88.946 72.684C89.21 72.684 89.458 72.736 89.69 72.84C89.922 72.936 90.122 73.068 90.29 73.236C90.466 73.404 90.606 73.604 90.71 73.836C90.814 74.068 90.866 74.316 90.866 74.58ZM96.2517 79.68C96.4997 79.432 96.7597 79.204 97.0317 78.996C97.3117 78.78 97.6037 78.6 97.9077 78.456C98.2197 78.304 98.5517 78.188 98.9037 78.108C99.2557 78.02 99.6397 77.976 100.056 77.976C100.728 77.976 101.324 78.092 101.844 78.324C102.364 78.548 102.796 78.868 103.14 79.284C103.492 79.692 103.756 80.184 103.932 80.76C104.116 81.328 104.208 81.956 104.208 82.644V90.48H101.244V82.644C101.244 81.892 101.072 81.312 100.728 80.904C100.384 80.488 99.8597 80.28 99.1557 80.28C98.6437 80.28 98.1637 80.396 97.7157 80.628C97.2677 80.86 96.8437 81.176 96.4437 81.576V90.48H93.4797V78.168H95.2917C95.6757 78.168 95.9277 78.348 96.0477 78.708L96.2517 79.68ZM113.531 85.224C112.675 85.264 111.955 85.34 111.371 85.452C110.787 85.556 110.319 85.692 109.967 85.86C109.615 86.028 109.363 86.224 109.211 86.448C109.059 86.672 108.983 86.916 108.983 87.18C108.983 87.7 109.135 88.072 109.439 88.296C109.751 88.52 110.155 88.632 110.651 88.632C111.259 88.632 111.783 88.524 112.223 88.308C112.671 88.084 113.107 87.748 113.531 87.3V85.224ZM106.739 79.884C108.155 78.588 109.859 77.94 111.851 77.94C112.571 77.94 113.215 78.06 113.783 78.3C114.351 78.532 114.831 78.86 115.223 79.284C115.615 79.7 115.911 80.2 116.111 80.784C116.319 81.368 116.423 82.008 116.423 82.704V90.48H115.079C114.799 90.48 114.583 90.44 114.431 90.36C114.279 90.272 114.159 90.1 114.071 89.844L113.807 88.956C113.495 89.236 113.191 89.484 112.895 89.7C112.599 89.908 112.291 90.084 111.971 90.228C111.651 90.372 111.307 90.48 110.939 90.552C110.579 90.632 110.179 90.672 109.739 90.672C109.219 90.672 108.739 90.604 108.299 90.468C107.859 90.324 107.479 90.112 107.159 89.832C106.839 89.552 106.591 89.204 106.415 88.788C106.239 88.372 106.151 87.888 106.151 87.336C106.151 87.024 106.203 86.716 106.307 86.412C106.411 86.1 106.579 85.804 106.811 85.524C107.051 85.244 107.359 84.98 107.735 84.732C108.111 84.484 108.571 84.268 109.115 84.084C109.667 83.9 110.307 83.752 111.035 83.64C111.763 83.52 112.595 83.448 113.531 83.424V82.704C113.531 81.88 113.355 81.272 113.003 80.88C112.651 80.48 112.143 80.28 111.479 80.28C110.999 80.28 110.599 80.336 110.279 80.448C109.967 80.56 109.691 80.688 109.451 80.832C109.211 80.968 108.991 81.092 108.791 81.204C108.599 81.316 108.383 81.372 108.143 81.372C107.935 81.372 107.759 81.32 107.615 81.216C107.471 81.104 107.355 80.976 107.267 80.832L106.739 79.884ZM121.986 79.68C122.234 79.432 122.494 79.204 122.766 78.996C123.046 78.78 123.338 78.6 123.642 78.456C123.954 78.304 124.286 78.188 124.638 78.108C124.99 78.02 125.374 77.976 125.79 77.976C126.462 77.976 127.058 78.092 127.578 78.324C128.098 78.548 128.53 78.868 128.874 79.284C129.226 79.692 129.49 80.184 129.666 80.76C129.85 81.328 129.942 81.956 129.942 82.644V90.48H126.978V82.644C126.978 81.892 126.806 81.312 126.462 80.904C126.118 80.488 125.594 80.28 124.89 80.28C124.378 80.28 123.898 80.396 123.45 80.628C123.002 80.86 122.578 81.176 122.178 81.576V90.48H119.214V78.168H121.026C121.41 78.168 121.662 78.348 121.782 78.708L121.986 79.68ZM141.581 80.772C141.493 80.884 141.405 80.972 141.317 81.036C141.237 81.1 141.117 81.132 140.957 81.132C140.805 81.132 140.657 81.088 140.513 81C140.369 80.904 140.197 80.8 139.997 80.688C139.797 80.568 139.557 80.464 139.277 80.376C139.005 80.28 138.665 80.232 138.257 80.232C137.737 80.232 137.281 80.328 136.889 80.52C136.497 80.704 136.169 80.972 135.905 81.324C135.649 81.676 135.457 82.104 135.329 82.608C135.201 83.104 135.137 83.668 135.137 84.3C135.137 84.956 135.205 85.54 135.341 86.052C135.485 86.564 135.689 86.996 135.953 87.348C136.217 87.692 136.537 87.956 136.913 88.14C137.289 88.316 137.713 88.404 138.185 88.404C138.657 88.404 139.037 88.348 139.325 88.236C139.621 88.116 139.869 87.988 140.069 87.852C140.269 87.708 140.441 87.58 140.585 87.468C140.737 87.348 140.905 87.288 141.089 87.288C141.329 87.288 141.509 87.38 141.629 87.564L142.481 88.644C142.153 89.028 141.797 89.352 141.413 89.616C141.029 89.872 140.629 90.08 140.213 90.24C139.805 90.392 139.381 90.5 138.941 90.564C138.509 90.628 138.077 90.66 137.645 90.66C136.885 90.66 136.169 90.52 135.497 90.24C134.825 89.952 134.237 89.536 133.733 88.992C133.229 88.448 132.829 87.784 132.533 87C132.245 86.208 132.101 85.308 132.101 84.3C132.101 83.396 132.229 82.56 132.485 81.792C132.749 81.016 133.133 80.348 133.637 79.788C134.141 79.22 134.765 78.776 135.509 78.456C136.253 78.136 137.109 77.976 138.077 77.976C138.997 77.976 139.801 78.124 140.489 78.42C141.185 78.716 141.809 79.14 142.361 79.692L141.581 80.772ZM152.06 82.908C152.06 82.524 152.004 82.164 151.892 81.828C151.788 81.484 151.628 81.184 151.412 80.928C151.196 80.672 150.92 80.472 150.584 80.328C150.256 80.176 149.872 80.1 149.432 80.1C148.576 80.1 147.9 80.344 147.404 80.832C146.916 81.32 146.604 82.012 146.468 82.908H152.06ZM146.408 84.696C146.456 85.328 146.568 85.876 146.744 86.34C146.92 86.796 147.152 87.176 147.44 87.48C147.728 87.776 148.068 88 148.46 88.152C148.86 88.296 149.3 88.368 149.78 88.368C150.26 88.368 150.672 88.312 151.016 88.2C151.368 88.088 151.672 87.964 151.928 87.828C152.192 87.692 152.42 87.568 152.612 87.456C152.812 87.344 153.004 87.288 153.188 87.288C153.436 87.288 153.62 87.38 153.74 87.564L154.592 88.644C154.264 89.028 153.896 89.352 153.488 89.616C153.08 89.872 152.652 90.08 152.204 90.24C151.764 90.392 151.312 90.5 150.848 90.564C150.392 90.628 149.948 90.66 149.516 90.66C148.66 90.66 147.864 90.52 147.128 90.24C146.392 89.952 145.752 89.532 145.208 88.98C144.664 88.42 144.236 87.732 143.924 86.916C143.612 86.092 143.456 85.14 143.456 84.06C143.456 83.22 143.592 82.432 143.864 81.696C144.136 80.952 144.524 80.308 145.028 79.764C145.54 79.212 146.16 78.776 146.888 78.456C147.624 78.136 148.452 77.976 149.372 77.976C150.148 77.976 150.864 78.1 151.52 78.348C152.176 78.596 152.74 78.96 153.212 79.44C153.684 79.912 154.052 80.496 154.316 81.192C154.588 81.88 154.724 82.668 154.724 83.556C154.724 84.004 154.676 84.308 154.58 84.468C154.484 84.62 154.3 84.696 154.028 84.696H146.408ZM177.88 73.128V90.48H174.64V82.896H166.492V90.48H163.252V73.128H166.492V80.592H174.64V73.128H177.88ZM188.834 82.908C188.834 82.524 188.778 82.164 188.666 81.828C188.562 81.484 188.402 81.184 188.186 80.928C187.97 80.672 187.694 80.472 187.358 80.328C187.03 80.176 186.646 80.1 186.206 80.1C185.35 80.1 184.674 80.344 184.178 80.832C183.69 81.32 183.378 82.012 183.242 82.908H188.834ZM183.182 84.696C183.23 85.328 183.342 85.876 183.518 86.34C183.694 86.796 183.926 87.176 184.214 87.48C184.502 87.776 184.842 88 185.234 88.152C185.634 88.296 186.074 88.368 186.554 88.368C187.034 88.368 187.446 88.312 187.79 88.2C188.142 88.088 188.446 87.964 188.702 87.828C188.966 87.692 189.194 87.568 189.386 87.456C189.586 87.344 189.778 87.288 189.962 87.288C190.21 87.288 190.394 87.38 190.514 87.564L191.366 88.644C191.038 89.028 190.67 89.352 190.262 89.616C189.854 89.872 189.426 90.08 188.978 90.24C188.538 90.392 188.086 90.5 187.622 90.564C187.166 90.628 186.722 90.66 186.29 90.66C185.434 90.66 184.638 90.52 183.902 90.24C183.166 89.952 182.526 89.532 181.982 88.98C181.438 88.42 181.01 87.732 180.698 86.916C180.386 86.092 180.23 85.14 180.23 84.06C180.23 83.22 180.366 82.432 180.638 81.696C180.91 80.952 181.298 80.308 181.802 79.764C182.314 79.212 182.934 78.776 183.662 78.456C184.398 78.136 185.226 77.976 186.146 77.976C186.922 77.976 187.638 78.1 188.294 78.348C188.95 78.596 189.514 78.96 189.986 79.44C190.458 79.912 190.826 80.496 191.09 81.192C191.362 81.88 191.498 82.668 191.498 83.556C191.498 84.004 191.45 84.308 191.354 84.468C191.258 84.62 191.074 84.696 190.802 84.696H183.182ZM196.722 72.648V90.48H193.758V72.648H196.722ZM202.639 87.288C202.975 87.696 203.339 87.984 203.731 88.152C204.131 88.32 204.563 88.404 205.027 88.404C205.475 88.404 205.879 88.32 206.239 88.152C206.599 87.984 206.903 87.728 207.151 87.384C207.407 87.04 207.603 86.608 207.739 86.088C207.875 85.56 207.943 84.94 207.943 84.228C207.943 83.508 207.883 82.9 207.763 82.404C207.651 81.9 207.487 81.492 207.271 81.18C207.055 80.868 206.791 80.64 206.479 80.496C206.175 80.352 205.827 80.28 205.435 80.28C204.819 80.28 204.295 80.412 203.863 80.676C203.431 80.932 203.023 81.296 202.639 81.768V87.288ZM202.483 79.848C202.987 79.28 203.559 78.82 204.199 78.468C204.839 78.116 205.591 77.94 206.455 77.94C207.127 77.94 207.739 78.08 208.291 78.36C208.851 78.64 209.331 79.048 209.731 79.584C210.139 80.112 210.451 80.768 210.667 81.552C210.891 82.328 211.003 83.22 211.003 84.228C211.003 85.148 210.879 86 210.631 86.784C210.383 87.568 210.027 88.248 209.563 88.824C209.107 89.4 208.551 89.852 207.895 90.18C207.247 90.5 206.519 90.66 205.711 90.66C205.023 90.66 204.435 90.556 203.947 90.348C203.459 90.132 203.023 89.836 202.639 89.46V94.5H199.675V78.168H201.487C201.871 78.168 202.123 78.348 202.243 78.708L202.483 79.848ZM48.9106 110.856C48.6546 110.808 48.3906 110.784 48.1186 110.784C47.6226 110.784 47.1586 110.892 46.7266 111.108C46.2946 111.324 45.9186 111.616 45.5986 111.984C45.2866 112.352 45.0386 112.776 44.8546 113.256C44.6706 113.728 44.5786 114.22 44.5786 114.732C44.5786 115.244 44.6866 115.644 44.9026 115.932C45.1266 116.212 45.4506 116.352 45.8746 116.352C46.0826 116.352 46.2906 116.32 46.4986 116.256C46.7146 116.192 46.9186 116.08 47.1106 115.92C47.3026 115.752 47.4786 115.532 47.6386 115.26C47.7986 114.988 47.9306 114.648 48.0346 114.24L48.9106 110.856ZM50.3146 113.928C50.1866 114.44 50.1226 114.86 50.1226 115.188C50.1306 115.508 50.1826 115.764 50.2786 115.956C50.3746 116.14 50.5106 116.268 50.6866 116.34C50.8626 116.412 51.0626 116.448 51.2866 116.448C51.6226 116.448 51.9386 116.344 52.2346 116.136C52.5386 115.92 52.8026 115.62 53.0266 115.236C53.2506 114.852 53.4266 114.396 53.5546 113.868C53.6906 113.34 53.7586 112.764 53.7586 112.14C53.7586 111.1 53.5946 110.184 53.2666 109.392C52.9466 108.6 52.4946 107.94 51.9106 107.412C51.3266 106.876 50.6306 106.476 49.8226 106.212C49.0226 105.94 48.1426 105.804 47.1826 105.804C46.1266 105.804 45.1506 106.004 44.2546 106.404C43.3586 106.796 42.5786 107.336 41.9146 108.024C41.2586 108.712 40.7426 109.524 40.3666 110.46C39.9986 111.396 39.8146 112.404 39.8146 113.484C39.8146 114.796 40.0186 115.952 40.4266 116.952C40.8346 117.944 41.3946 118.776 42.1066 119.448C42.8186 120.112 43.6546 120.612 44.6146 120.948C45.5826 121.284 46.6266 121.452 47.7466 121.452C48.3626 121.452 48.9386 121.416 49.4746 121.344C50.0106 121.28 50.5026 121.188 50.9506 121.068C51.3986 120.956 51.8066 120.824 52.1746 120.672C52.5426 120.528 52.8706 120.372 53.1586 120.204C53.3666 120.084 53.5506 120.048 53.7106 120.096C53.8706 120.144 53.9866 120.264 54.0586 120.456L54.4666 121.524C53.6346 122.068 52.6626 122.512 51.5506 122.856C50.4386 123.2 49.1706 123.372 47.7466 123.372C46.2986 123.372 44.9586 123.144 43.7266 122.688C42.4946 122.232 41.4266 121.576 40.5226 120.72C39.6266 119.872 38.9226 118.836 38.4106 117.612C37.9066 116.388 37.6546 115.012 37.6546 113.484C37.6546 112.628 37.7626 111.796 37.9786 110.988C38.2026 110.18 38.5186 109.424 38.9266 108.72C39.3346 108.008 39.8266 107.356 40.4026 106.764C40.9786 106.172 41.6186 105.664 42.3226 105.24C43.0266 104.816 43.7866 104.488 44.6026 104.256C45.4266 104.016 46.2866 103.896 47.1826 103.896C48.3186 103.896 49.4066 104.088 50.4466 104.472C51.4946 104.848 52.4186 105.392 53.2186 106.104C54.0266 106.808 54.6706 107.672 55.1506 108.696C55.6306 109.712 55.8706 110.86 55.8706 112.14C55.8706 112.996 55.7426 113.8 55.4866 114.552C55.2386 115.296 54.8866 115.944 54.4306 116.496C53.9826 117.048 53.4506 117.484 52.8346 117.804C52.2266 118.116 51.5626 118.272 50.8426 118.272C50.2906 118.272 49.8026 118.144 49.3786 117.888C48.9546 117.632 48.6626 117.22 48.5026 116.652C48.0306 117.228 47.5306 117.64 47.0026 117.888C46.4746 118.136 45.9026 118.26 45.2866 118.26C44.7826 118.26 44.3426 118.172 43.9666 117.996C43.5986 117.82 43.2866 117.58 43.0306 117.276C42.7826 116.964 42.5946 116.6 42.4666 116.184C42.3466 115.76 42.2866 115.3 42.2866 114.804C42.2866 114.348 42.3426 113.888 42.4546 113.424C42.5746 112.952 42.7506 112.5 42.9826 112.068C43.2146 111.628 43.5026 111.22 43.8466 110.844C44.1986 110.46 44.6066 110.128 45.0706 109.848C45.5426 109.56 46.0706 109.336 46.6546 109.176C47.2466 109.008 47.8946 108.924 48.5986 108.924C49.2226 108.924 49.7546 108.972 50.1946 109.068C50.6346 109.164 51.0586 109.3 51.4666 109.476L50.3146 113.928ZM74.6872 108.168L67.9792 123.864C67.8912 124.072 67.7752 124.228 67.6312 124.332C67.4952 124.444 67.2832 124.5 66.9952 124.5H64.7872L67.0912 119.556L62.1112 108.168H64.7152C64.9472 108.168 65.1272 108.224 65.2552 108.336C65.3912 108.448 65.4912 108.576 65.5552 108.72L68.1712 115.104C68.2592 115.32 68.3312 115.536 68.3872 115.752C68.4512 115.968 68.5112 116.188 68.5672 116.412C68.6392 116.188 68.7112 115.968 68.7832 115.752C68.8552 115.528 68.9352 115.308 69.0232 115.092L71.4952 108.72C71.5592 108.56 71.6632 108.428 71.8072 108.324C71.9592 108.22 72.1272 108.168 72.3112 108.168H74.6872ZM81.2324 107.976C82.1444 107.976 82.9724 108.124 83.7164 108.42C84.4684 108.716 85.1084 109.136 85.6364 109.68C86.1724 110.224 86.5844 110.888 86.8724 111.672C87.1604 112.456 87.3044 113.332 87.3044 114.3C87.3044 115.276 87.1604 116.156 86.8724 116.94C86.5844 117.724 86.1724 118.392 85.6364 118.944C85.1084 119.496 84.4684 119.92 83.7164 120.216C82.9724 120.512 82.1444 120.66 81.2324 120.66C80.3124 120.66 79.4764 120.512 78.7244 120.216C77.9724 119.92 77.3284 119.496 76.7924 118.944C76.2644 118.392 75.8524 117.724 75.5564 116.94C75.2684 116.156 75.1244 115.276 75.1244 114.3C75.1244 113.332 75.2684 112.456 75.5564 111.672C75.8524 110.888 76.2644 110.224 76.7924 109.68C77.3284 109.136 77.9724 108.716 78.7244 108.42C79.4764 108.124 80.3124 107.976 81.2324 107.976ZM81.2324 118.38C82.2564 118.38 83.0124 118.036 83.5004 117.348C83.9964 116.66 84.2444 115.652 84.2444 114.324C84.2444 112.996 83.9964 111.984 83.5004 111.288C83.0124 110.592 82.2564 110.244 81.2324 110.244C80.1924 110.244 79.4204 110.596 78.9164 111.3C78.4204 111.996 78.1724 113.004 78.1724 114.324C78.1724 115.644 78.4204 116.652 78.9164 117.348C79.4204 118.036 80.1924 118.38 81.2324 118.38ZM100.174 108.168V120.48H98.3617C97.9697 120.48 97.7217 120.3 97.6177 119.94L97.4137 118.956C96.9097 119.468 96.3537 119.884 95.7457 120.204C95.1377 120.516 94.4217 120.672 93.5977 120.672C92.9257 120.672 92.3297 120.56 91.8097 120.336C91.2977 120.104 90.8657 119.78 90.5137 119.364C90.1617 118.948 89.8937 118.456 89.7097 117.888C89.5337 117.312 89.4457 116.68 89.4457 115.992V108.168H92.4097V115.992C92.4097 116.744 92.5817 117.328 92.9257 117.744C93.2777 118.152 93.8017 118.356 94.4977 118.356C95.0097 118.356 95.4897 118.244 95.9377 118.02C96.3857 117.788 96.8097 117.472 97.2097 117.072V108.168H100.174ZM105.909 110.304C106.293 109.568 106.749 108.992 107.277 108.576C107.805 108.152 108.429 107.94 109.149 107.94C109.717 107.94 110.173 108.064 110.517 108.312L110.325 110.532C110.285 110.676 110.225 110.78 110.145 110.844C110.073 110.9 109.973 110.928 109.845 110.928C109.725 110.928 109.545 110.908 109.305 110.868C109.073 110.828 108.845 110.808 108.621 110.808C108.293 110.808 108.001 110.856 107.745 110.952C107.489 111.048 107.257 111.188 107.049 111.372C106.849 111.548 106.669 111.764 106.509 112.02C106.357 112.276 106.213 112.568 106.077 112.896V120.48H103.113V108.168H104.853C105.157 108.168 105.369 108.224 105.489 108.336C105.609 108.44 105.689 108.632 105.729 108.912L105.909 110.304ZM125.114 111.312C124.778 110.904 124.41 110.616 124.01 110.448C123.618 110.28 123.194 110.196 122.738 110.196C122.29 110.196 121.886 110.28 121.526 110.448C121.166 110.616 120.858 110.872 120.602 111.216C120.346 111.552 120.15 111.984 120.014 112.512C119.878 113.032 119.81 113.648 119.81 114.36C119.81 115.08 119.866 115.692 119.978 116.196C120.098 116.692 120.266 117.1 120.482 117.42C120.698 117.732 120.962 117.96 121.274 118.104C121.586 118.24 121.934 118.308 122.318 118.308C122.934 118.308 123.458 118.18 123.89 117.924C124.322 117.668 124.73 117.304 125.114 116.832V111.312ZM128.078 102.648V120.48H126.266C125.874 120.48 125.626 120.3 125.522 119.94L125.27 118.752C124.774 119.32 124.202 119.78 123.554 120.132C122.914 120.484 122.166 120.66 121.31 120.66C120.638 120.66 120.022 120.52 119.462 120.24C118.902 119.96 118.418 119.556 118.01 119.028C117.61 118.492 117.298 117.832 117.074 117.048C116.858 116.264 116.75 115.368 116.75 114.36C116.75 113.448 116.874 112.6 117.122 111.816C117.37 111.032 117.726 110.352 118.19 109.776C118.654 109.2 119.21 108.752 119.858 108.432C120.506 108.104 121.234 107.94 122.042 107.94C122.73 107.94 123.318 108.048 123.806 108.264C124.294 108.48 124.73 108.772 125.114 109.14V102.648H128.078ZM136.451 107.976C137.363 107.976 138.191 108.124 138.935 108.42C139.687 108.716 140.327 109.136 140.855 109.68C141.391 110.224 141.803 110.888 142.091 111.672C142.379 112.456 142.523 113.332 142.523 114.3C142.523 115.276 142.379 116.156 142.091 116.94C141.803 117.724 141.391 118.392 140.855 118.944C140.327 119.496 139.687 119.92 138.935 120.216C138.191 120.512 137.363 120.66 136.451 120.66C135.531 120.66 134.695 120.512 133.943 120.216C133.191 119.92 132.547 119.496 132.011 118.944C131.483 118.392 131.071 117.724 130.775 116.94C130.487 116.156 130.343 115.276 130.343 114.3C130.343 113.332 130.487 112.456 130.775 111.672C131.071 110.888 131.483 110.224 132.011 109.68C132.547 109.136 133.191 108.716 133.943 108.42C134.695 108.124 135.531 107.976 136.451 107.976ZM136.451 118.38C137.475 118.38 138.231 118.036 138.719 117.348C139.215 116.66 139.463 115.652 139.463 114.324C139.463 112.996 139.215 111.984 138.719 111.288C138.231 110.592 137.475 110.244 136.451 110.244C135.411 110.244 134.639 110.596 134.135 111.3C133.639 111.996 133.391 113.004 133.391 114.324C133.391 115.644 133.639 116.652 134.135 117.348C134.639 118.036 135.411 118.38 136.451 118.38ZM150.232 107.976C151.144 107.976 151.972 108.124 152.716 108.42C153.468 108.716 154.108 109.136 154.636 109.68C155.172 110.224 155.584 110.888 155.872 111.672C156.16 112.456 156.304 113.332 156.304 114.3C156.304 115.276 156.16 116.156 155.872 116.94C155.584 117.724 155.172 118.392 154.636 118.944C154.108 119.496 153.468 119.92 152.716 120.216C151.972 120.512 151.144 120.66 150.232 120.66C149.312 120.66 148.476 120.512 147.724 120.216C146.972 119.92 146.328 119.496 145.792 118.944C145.264 118.392 144.852 117.724 144.556 116.94C144.268 116.156 144.124 115.276 144.124 114.3C144.124 113.332 144.268 112.456 144.556 111.672C144.852 110.888 145.264 110.224 145.792 109.68C146.328 109.136 146.972 108.716 147.724 108.42C148.476 108.124 149.312 107.976 150.232 107.976ZM150.232 118.38C151.256 118.38 152.012 118.036 152.5 117.348C152.996 116.66 153.244 115.652 153.244 114.324C153.244 112.996 152.996 111.984 152.5 111.288C152.012 110.592 151.256 110.244 150.232 110.244C149.192 110.244 148.42 110.596 147.916 111.3C147.42 111.996 147.172 113.004 147.172 114.324C147.172 115.644 147.42 116.652 147.916 117.348C148.42 118.036 149.192 118.38 150.232 118.38ZM161.362 110.304C161.746 109.568 162.202 108.992 162.73 108.576C163.258 108.152 163.882 107.94 164.602 107.94C165.17 107.94 165.626 108.064 165.97 108.312L165.778 110.532C165.738 110.676 165.678 110.78 165.598 110.844C165.526 110.9 165.426 110.928 165.298 110.928C165.178 110.928 164.998 110.908 164.758 110.868C164.526 110.828 164.298 110.808 164.074 110.808C163.746 110.808 163.454 110.856 163.198 110.952C162.942 111.048 162.71 111.188 162.502 111.372C162.302 111.548 162.122 111.764 161.962 112.02C161.81 112.276 161.666 112.568 161.53 112.896V120.48H158.566V108.168H160.306C160.61 108.168 160.822 108.224 160.942 108.336C161.062 108.44 161.142 108.632 161.182 108.912L161.362 110.304ZM174.984 110.568C174.904 110.696 174.82 110.788 174.732 110.844C174.644 110.892 174.532 110.916 174.396 110.916C174.252 110.916 174.096 110.876 173.928 110.796C173.768 110.716 173.58 110.628 173.364 110.532C173.148 110.428 172.9 110.336 172.62 110.256C172.348 110.176 172.024 110.136 171.648 110.136C171.064 110.136 170.604 110.26 170.268 110.508C169.94 110.756 169.776 111.08 169.776 111.48C169.776 111.744 169.86 111.968 170.028 112.152C170.204 112.328 170.432 112.484 170.712 112.62C171 112.756 171.324 112.88 171.684 112.992C172.044 113.096 172.408 113.212 172.776 113.34C173.152 113.468 173.52 113.616 173.88 113.784C174.24 113.944 174.56 114.152 174.84 114.408C175.128 114.656 175.356 114.956 175.524 115.308C175.7 115.66 175.788 116.084 175.788 116.58C175.788 117.172 175.68 117.72 175.464 118.224C175.256 118.72 174.944 119.152 174.528 119.52C174.112 119.88 173.596 120.164 172.98 120.372C172.372 120.572 171.668 120.672 170.868 120.672C170.444 120.672 170.028 120.632 169.62 120.552C169.22 120.48 168.832 120.376 168.456 120.24C168.088 120.104 167.744 119.944 167.424 119.76C167.112 119.576 166.836 119.376 166.596 119.16L167.28 118.032C167.368 117.896 167.472 117.792 167.592 117.72C167.712 117.648 167.864 117.612 168.048 117.612C168.232 117.612 168.404 117.664 168.564 117.768C168.732 117.872 168.924 117.984 169.14 118.104C169.356 118.224 169.608 118.336 169.896 118.44C170.192 118.544 170.564 118.596 171.012 118.596C171.364 118.596 171.664 118.556 171.912 118.476C172.168 118.388 172.376 118.276 172.536 118.14C172.704 118.004 172.824 117.848 172.896 117.672C172.976 117.488 173.016 117.3 173.016 117.108C173.016 116.82 172.928 116.584 172.752 116.4C172.584 116.216 172.356 116.056 172.068 115.92C171.788 115.784 171.464 115.664 171.096 115.56C170.736 115.448 170.364 115.328 169.98 115.2C169.604 115.072 169.232 114.924 168.864 114.756C168.504 114.58 168.18 114.36 167.892 114.096C167.612 113.832 167.384 113.508 167.208 113.124C167.04 112.74 166.956 112.276 166.956 111.732C166.956 111.228 167.056 110.748 167.256 110.292C167.456 109.836 167.748 109.44 168.132 109.104C168.524 108.76 169.008 108.488 169.584 108.288C170.168 108.08 170.84 107.976 171.6 107.976C172.448 107.976 173.22 108.116 173.916 108.396C174.612 108.676 175.192 109.044 175.656 109.5L174.984 110.568ZM182.123 120.672C181.051 120.672 180.227 120.372 179.651 119.772C179.083 119.164 178.799 118.328 178.799 117.264V110.388H177.539C177.379 110.388 177.243 110.336 177.131 110.232C177.019 110.128 176.963 109.972 176.963 109.764V108.588L178.943 108.264L179.567 104.904C179.607 104.744 179.683 104.62 179.795 104.532C179.907 104.444 180.051 104.4 180.227 104.4H181.763V108.276H185.051V110.388H181.763V117.06C181.763 117.444 181.855 117.744 182.039 117.96C182.231 118.176 182.491 118.284 182.819 118.284C183.003 118.284 183.155 118.264 183.275 118.224C183.403 118.176 183.511 118.128 183.599 118.08C183.695 118.032 183.779 117.988 183.851 117.948C183.923 117.9 183.995 117.876 184.067 117.876C184.155 117.876 184.227 117.9 184.283 117.948C184.339 117.988 184.399 118.052 184.463 118.14L185.351 119.58C184.919 119.94 184.423 120.212 183.863 120.396C183.303 120.58 182.723 120.672 182.123 120.672ZM194.787 112.908C194.787 112.524 194.731 112.164 194.619 111.828C194.515 111.484 194.355 111.184 194.139 110.928C193.923 110.672 193.647 110.472 193.311 110.328C192.983 110.176 192.599 110.1 192.159 110.1C191.303 110.1 190.627 110.344 190.131 110.832C189.643 111.32 189.331 112.012 189.195 112.908H194.787ZM189.135 114.696C189.183 115.328 189.295 115.876 189.471 116.34C189.647 116.796 189.879 117.176 190.167 117.48C190.455 117.776 190.795 118 191.187 118.152C191.587 118.296 192.027 118.368 192.507 118.368C192.987 118.368 193.399 118.312 193.743 118.2C194.095 118.088 194.399 117.964 194.655 117.828C194.919 117.692 195.147 117.568 195.339 117.456C195.539 117.344 195.731 117.288 195.915 117.288C196.163 117.288 196.347 117.38 196.467 117.564L197.319 118.644C196.991 119.028 196.623 119.352 196.215 119.616C195.807 119.872 195.379 120.08 194.931 120.24C194.491 120.392 194.039 120.5 193.575 120.564C193.119 120.628 192.675 120.66 192.243 120.66C191.387 120.66 190.591 120.52 189.855 120.24C189.119 119.952 188.479 119.532 187.935 118.98C187.391 118.42 186.963 117.732 186.651 116.916C186.339 116.092 186.183 115.14 186.183 114.06C186.183 113.22 186.319 112.432 186.591 111.696C186.863 110.952 187.251 110.308 187.755 109.764C188.267 109.212 188.887 108.776 189.615 108.456C190.351 108.136 191.179 107.976 192.099 107.976C192.875 107.976 193.591 108.1 194.247 108.348C194.903 108.596 195.467 108.96 195.939 109.44C196.411 109.912 196.779 110.496 197.043 111.192C197.315 111.88 197.451 112.668 197.451 113.556C197.451 114.004 197.403 114.308 197.307 114.468C197.211 114.62 197.027 114.696 196.755 114.696H189.135ZM202.639 117.288C202.975 117.696 203.339 117.984 203.731 118.152C204.131 118.32 204.563 118.404 205.027 118.404C205.475 118.404 205.879 118.32 206.239 118.152C206.599 117.984 206.903 117.728 207.151 117.384C207.407 117.04 207.603 116.608 207.739 116.088C207.875 115.56 207.943 114.94 207.943 114.228C207.943 113.508 207.883 112.9 207.763 112.404C207.651 111.9 207.487 111.492 207.271 111.18C207.055 110.868 206.791 110.64 206.479 110.496C206.175 110.352 205.827 110.28 205.435 110.28C204.819 110.28 204.295 110.412 203.863 110.676C203.431 110.932 203.023 111.296 202.639 111.768V117.288ZM202.483 109.848C202.987 109.28 203.559 108.82 204.199 108.468C204.839 108.116 205.591 107.94 206.455 107.94C207.127 107.94 207.739 108.08 208.291 108.36C208.851 108.64 209.331 109.048 209.731 109.584C210.139 110.112 210.451 110.768 210.667 111.552C210.891 112.328 211.003 113.22 211.003 114.228C211.003 115.148 210.879 116 210.631 116.784C210.383 117.568 210.027 118.248 209.563 118.824C209.107 119.4 208.551 119.852 207.895 120.18C207.247 120.5 206.519 120.66 205.711 120.66C205.023 120.66 204.435 120.556 203.947 120.348C203.459 120.132 203.023 119.836 202.639 119.46V124.5H199.675V108.168H201.487C201.871 108.168 202.123 108.348 202.243 108.708L202.483 109.848Z" fill="#212121"/>
<g clip-path="url(#clip0_13255_40313)">
<path d="M49.2693 184.953C47.8155 185.86 46.9657 187.697 45.9303 189.009C45.6416 189.308 46.0622 189.829 46.4684 189.528C47.6831 188.39 49.0092 186.898 49.8074 185.473C49.9189 185.118 49.5602 184.772 49.2693 184.953Z" fill="#212121"/>
<path d="M57.8127 179.338C56.1672 179.367 54.7175 180.509 53.7379 181.643C53.5069 181.882 53.8656 182.228 54.0966 181.989C54.7338 181.449 55.3731 181.027 56.0722 180.662C56.7135 180.357 57.3569 180.169 57.9982 179.864C58.291 179.8 58.1653 179.332 57.8127 179.338Z" fill="#212121"/>
<path d="M68.5395 177.564C67.7705 177.284 66.8303 177.3 66.0095 177.432C65.1868 177.446 64.3084 177.638 63.5475 177.827C63.2547 177.891 63.3206 178.301 63.6134 178.237C64.4341 178.106 65.2568 178.091 66.0218 178.137C66.8445 178.123 67.6713 178.343 68.4941 178.329C68.9063 178.381 68.9539 177.733 68.5395 177.564Z" fill="#212121"/>
<path d="M73.4013 179.949C72.9291 179.839 72.7639 180.489 73.2362 180.598C73.6506 180.767 74.1825 180.934 74.597 181.104C75.131 181.388 75.4917 181.852 76.0236 182.019C76.2607 182.133 76.5495 181.834 76.4279 181.601C76.059 180.667 74.4054 180.225 73.4013 179.949Z" fill="#212121"/>
<path d="M82.4339 185.552C81.8361 184.975 81.2382 184.397 80.5846 183.997C80.2279 183.768 79.8814 184.127 80.1804 184.416C80.6608 184.995 81.1391 185.457 81.6772 185.977C82.2153 186.496 82.6379 187.136 83.3491 187.476C83.646 187.647 84.0502 187.229 83.8688 186.938C83.5062 186.356 82.9701 185.954 82.4339 185.552Z" fill="#212121"/>
<path d="M86.309 192.069C86.6759 192.886 87.0427 193.702 87.2941 194.638C87.5436 195.457 87.6775 196.395 88.2176 197.032C88.4588 197.381 88.9228 197.02 88.9763 196.725C89.0199 195.843 88.5334 194.911 88.1664 194.094C87.8573 193.218 87.4327 192.461 86.9503 191.764C86.6494 191.358 86.0677 191.721 86.309 192.069Z" fill="#212121"/>
<path d="M88.3149 199.206C88.3869 199.969 88.5189 200.789 88.5311 201.495C88.5372 201.847 88.4856 202.26 88.3741 202.614C88.2627 202.969 88.1473 203.088 88.2132 203.499C88.277 203.792 88.6317 203.903 88.8647 203.781C89.5041 203.359 89.4279 202.361 89.4157 201.656C89.3415 200.775 89.0922 199.957 88.7831 199.08C88.6615 198.847 88.2511 198.913 88.3149 199.206Z" fill="#212121"/>
<path d="M85.3626 205.253C85.3131 205.783 85.1459 206.315 84.7995 206.674C84.5107 206.973 84.1045 207.274 84.1126 207.744C84.1167 207.979 84.2961 208.152 84.5311 208.148C85.7064 208.128 86.0244 206.124 85.8925 205.303C85.8288 205.01 85.4163 204.958 85.3626 205.253Z" fill="#212121"/>
<path d="M80.4119 207.866C79.8903 208.286 79.2508 208.709 78.6096 209.014C77.8508 209.321 77.2013 209.156 76.4342 208.993C76.0218 208.941 75.7351 209.358 76.036 209.764C77.5926 211.383 79.8549 209.639 80.8304 208.27C80.9439 208.033 80.5851 207.686 80.4119 207.866Z" fill="#212121"/>
<path d="M73.5784 207.045C72.2196 206.657 71.4383 205.671 70.3084 204.927C70.0117 204.756 69.6652 205.114 69.8465 205.405C70.6897 206.566 72.0546 207.307 73.469 207.517C73.7639 207.571 73.8754 207.216 73.5784 207.045Z" fill="#212121"/>
<path d="M63.5255 196.874C63.5024 198.931 64.7662 200.614 66.199 201.883C66.4381 202.114 66.8424 201.695 66.6032 201.464C65.4054 200.192 64.4964 198.62 64.2307 196.861C64.2226 196.391 63.5174 196.403 63.5255 196.874Z" fill="#212121"/>
<path d="M62.5709 189.247C62.0696 190.843 62.2776 192.662 62.6588 194.301C62.7247 194.712 63.3681 194.524 63.2444 194.173C63.0406 192.59 63.1892 191 63.2205 189.412C63.2123 188.942 62.6823 188.893 62.5709 189.247Z" fill="#212121"/>
<path d="M62.5099 182.372C61.7015 183.209 61.495 184.858 61.5732 185.974C61.5813 186.444 62.2866 186.432 62.2784 185.961C62.2682 185.374 62.3755 184.784 62.5426 184.252C62.7097 183.72 62.9943 183.186 63.1016 182.596C63.1553 182.302 62.6831 182.192 62.5099 182.372Z" fill="#212121"/>
<path d="M67.7368 171.934C67.2748 172.413 66.9922 173.064 66.5901 173.6C66.1322 174.314 65.6145 174.969 65.334 175.738C65.1648 176.153 65.6988 176.437 65.9277 176.081C66.3279 175.427 66.8455 174.772 67.3055 174.176C67.7077 173.64 68.2851 173.042 68.3904 172.335C68.5595 171.92 68.0254 171.636 67.7368 171.934Z" fill="#212121"/>
<path d="M72.2777 166.036C71.3476 166.64 70.6031 167.77 69.8545 168.665C69.5657 168.964 69.9842 169.368 70.273 169.069C71.1412 168.29 72.1867 167.566 72.8158 166.556C73.0446 166.199 72.6261 165.795 72.2777 166.036Z" fill="#212121"/>
<path d="M77.9472 160.764C77.4234 161.067 77.079 161.544 76.6746 161.962C76.2705 162.381 75.8085 162.859 75.464 163.335C75.1753 163.634 75.6536 164.096 75.9423 163.797C76.3466 163.379 76.8086 162.9 77.2725 162.54C77.6767 162.121 78.1407 161.76 78.4255 161.226C78.6564 160.987 78.2977 160.641 77.9472 160.764Z" fill="#212121"/>
<path d="M82.9193 155.976C81.3913 156.002 79.9232 156.086 78.4572 156.288C77.4015 156.424 75.6383 156.455 74.9474 157.29C74.6587 157.589 74.7865 158.174 75.2586 158.284C76.203 158.502 77.3701 158.012 78.2486 157.82C79.3621 157.624 80.5952 157.544 81.8282 157.464C81.1516 159.122 80.6544 160.953 80.1551 162.666C79.988 163.198 80.8766 163.594 81.1614 163.06C82.1267 161.103 82.4405 158.864 83.643 157.021C83.9295 156.605 83.4493 156.025 82.9193 155.976Z" fill="#212121"/>
</g>
<mask id="path-20-outside-1_13255_40313" maskUnits="userSpaceOnUse" x="98.5167" y="175.398" width="112" height="22" fill="black">
<rect fill="white" x="98.5167" y="175.398" width="112" height="22"/>
<path d="M98.5167 175.398H210.517V195.398H98.5167V175.398Z"/>
</mask>
<path d="M210.517 195.398V193.398H98.5167V195.398V197.398H210.517V195.398Z" fill="#212121" mask="url(#path-20-outside-1_13255_40313)"/>
<path d="M104.133 189.718C104.533 189.718 104.869 189.67 105.141 189.574C105.413 189.478 105.629 189.35 105.789 189.19C105.954 189.03 106.071 188.844 106.141 188.63C106.215 188.417 106.253 188.19 106.253 187.95C106.253 187.7 106.213 187.476 106.133 187.278C106.053 187.076 105.927 186.905 105.757 186.766C105.586 186.622 105.365 186.513 105.093 186.438C104.826 186.364 104.503 186.326 104.125 186.326H101.957V189.718H104.133ZM101.957 181.494V184.838H103.669C104.405 184.838 104.959 184.705 105.333 184.438C105.711 184.172 105.901 183.748 105.901 183.166C105.901 182.564 105.73 182.134 105.389 181.878C105.047 181.622 104.514 181.494 103.789 181.494H101.957ZM103.789 179.83C104.546 179.83 105.194 179.902 105.733 180.046C106.271 180.19 106.711 180.396 107.053 180.662C107.399 180.929 107.653 181.252 107.813 181.63C107.973 182.009 108.053 182.436 108.053 182.91C108.053 183.182 108.013 183.444 107.933 183.694C107.853 183.94 107.727 184.172 107.557 184.39C107.391 184.604 107.178 184.798 106.917 184.974C106.661 185.15 106.354 185.3 105.997 185.422C107.586 185.78 108.381 186.638 108.381 187.998C108.381 188.489 108.287 188.942 108.101 189.358C107.914 189.774 107.642 190.134 107.285 190.438C106.927 190.737 106.487 190.972 105.965 191.142C105.442 191.313 104.845 191.398 104.173 191.398H99.8047V179.83H103.789ZM114.047 183.062C114.655 183.062 115.207 183.161 115.703 183.358C116.204 183.556 116.631 183.836 116.983 184.198C117.34 184.561 117.615 185.004 117.807 185.526C117.999 186.049 118.095 186.633 118.095 187.278C118.095 187.929 117.999 188.516 117.807 189.038C117.615 189.561 117.34 190.006 116.983 190.374C116.631 190.742 116.204 191.025 115.703 191.222C115.207 191.42 114.655 191.518 114.047 191.518C113.433 191.518 112.876 191.42 112.375 191.222C111.873 191.025 111.444 190.742 111.087 190.374C110.735 190.006 110.46 189.561 110.263 189.038C110.071 188.516 109.975 187.929 109.975 187.278C109.975 186.633 110.071 186.049 110.263 185.526C110.46 185.004 110.735 184.561 111.087 184.198C111.444 183.836 111.873 183.556 112.375 183.358C112.876 183.161 113.433 183.062 114.047 183.062ZM114.047 189.998C114.729 189.998 115.233 189.769 115.559 189.31C115.889 188.852 116.055 188.18 116.055 187.294C116.055 186.409 115.889 185.734 115.559 185.27C115.233 184.806 114.729 184.574 114.047 184.574C113.353 184.574 112.839 184.809 112.503 185.278C112.172 185.742 112.007 186.414 112.007 187.294C112.007 188.174 112.172 188.846 112.503 189.31C112.839 189.769 113.353 189.998 114.047 189.998ZM123.734 183.062C124.342 183.062 124.894 183.161 125.39 183.358C125.891 183.556 126.318 183.836 126.67 184.198C127.027 184.561 127.302 185.004 127.494 185.526C127.686 186.049 127.782 186.633 127.782 187.278C127.782 187.929 127.686 188.516 127.494 189.038C127.302 189.561 127.027 190.006 126.67 190.374C126.318 190.742 125.891 191.025 125.39 191.222C124.894 191.42 124.342 191.518 123.734 191.518C123.121 191.518 122.563 191.42 122.062 191.222C121.561 191.025 121.131 190.742 120.774 190.374C120.422 190.006 120.147 189.561 119.95 189.038C119.758 188.516 119.662 187.929 119.662 187.278C119.662 186.633 119.758 186.049 119.95 185.526C120.147 185.004 120.422 184.561 120.774 184.198C121.131 183.836 121.561 183.556 122.062 183.358C122.563 183.161 123.121 183.062 123.734 183.062ZM123.734 189.998C124.417 189.998 124.921 189.769 125.246 189.31C125.577 188.852 125.742 188.18 125.742 187.294C125.742 186.409 125.577 185.734 125.246 185.27C124.921 184.806 124.417 184.574 123.734 184.574C123.041 184.574 122.526 184.809 122.19 185.278C121.859 185.742 121.694 186.414 121.694 187.294C121.694 188.174 121.859 188.846 122.19 189.31C122.526 189.769 123.041 189.998 123.734 189.998ZM131.766 179.51V186.318H132.134C132.267 186.318 132.371 186.302 132.446 186.27C132.526 186.233 132.606 186.161 132.686 186.054L134.726 183.534C134.811 183.422 134.904 183.337 135.006 183.278C135.112 183.22 135.248 183.19 135.414 183.19H137.222L134.67 186.238C134.488 186.478 134.291 186.662 134.078 186.79C134.19 186.87 134.288 186.964 134.374 187.07C134.464 187.177 134.55 187.292 134.63 187.414L137.366 191.398H135.582C135.427 191.398 135.294 191.374 135.182 191.326C135.07 191.273 134.976 191.18 134.902 191.046L132.806 187.934C132.731 187.812 132.654 187.732 132.574 187.694C132.494 187.657 132.374 187.638 132.214 187.638H131.766V191.398H129.79V179.51H131.766ZM147.866 186.918V191.398H145.722V186.918L141.506 179.83H143.402C143.589 179.83 143.736 179.876 143.842 179.966C143.954 180.057 144.048 180.172 144.122 180.31L146.234 184.174C146.357 184.404 146.464 184.62 146.554 184.822C146.65 185.025 146.736 185.228 146.81 185.43C146.88 185.228 146.96 185.025 147.05 184.822C147.141 184.62 147.245 184.404 147.362 184.174L149.466 180.31C149.525 180.193 149.613 180.084 149.73 179.982C149.848 179.881 149.997 179.83 150.178 179.83H152.082L147.866 186.918ZM155.281 183.062C155.889 183.062 156.441 183.161 156.937 183.358C157.438 183.556 157.865 183.836 158.217 184.198C158.574 184.561 158.849 185.004 159.041 185.526C159.233 186.049 159.329 186.633 159.329 187.278C159.329 187.929 159.233 188.516 159.041 189.038C158.849 189.561 158.574 190.006 158.217 190.374C157.865 190.742 157.438 191.025 156.937 191.222C156.441 191.42 155.889 191.518 155.281 191.518C154.668 191.518 154.11 191.42 153.609 191.222C153.108 191.025 152.678 190.742 152.321 190.374C151.969 190.006 151.694 189.561 151.497 189.038C151.305 188.516 151.209 187.929 151.209 187.278C151.209 186.633 151.305 186.049 151.497 185.526C151.694 185.004 151.969 184.561 152.321 184.198C152.678 183.836 153.108 183.556 153.609 183.358C154.11 183.161 154.668 183.062 155.281 183.062ZM155.281 189.998C155.964 189.998 156.468 189.769 156.793 189.31C157.124 188.852 157.289 188.18 157.289 187.294C157.289 186.409 157.124 185.734 156.793 185.27C156.468 184.806 155.964 184.574 155.281 184.574C154.588 184.574 154.073 184.809 153.737 185.278C153.406 185.742 153.241 186.414 153.241 187.294C153.241 188.174 153.406 188.846 153.737 189.31C154.073 189.769 154.588 189.998 155.281 189.998ZM168.408 183.19V191.398H167.2C166.939 191.398 166.774 191.278 166.704 191.038L166.568 190.382C166.232 190.724 165.862 191.001 165.456 191.214C165.051 191.422 164.574 191.526 164.024 191.526C163.576 191.526 163.179 191.452 162.832 191.302C162.491 191.148 162.203 190.932 161.968 190.654C161.734 190.377 161.555 190.049 161.432 189.67C161.315 189.286 161.256 188.865 161.256 188.406V183.19H163.232V188.406C163.232 188.908 163.347 189.297 163.576 189.574C163.811 189.846 164.16 189.982 164.624 189.982C164.966 189.982 165.286 189.908 165.584 189.758C165.883 189.604 166.166 189.393 166.432 189.126V183.19H168.408ZM172.732 184.614C172.988 184.124 173.292 183.74 173.644 183.462C173.996 183.18 174.412 183.038 174.892 183.038C175.27 183.038 175.574 183.121 175.804 183.286L175.676 184.766C175.649 184.862 175.609 184.932 175.556 184.974C175.508 185.012 175.441 185.03 175.356 185.03C175.276 185.03 175.156 185.017 174.996 184.99C174.841 184.964 174.689 184.95 174.54 184.95C174.321 184.95 174.126 184.982 173.956 185.046C173.785 185.11 173.63 185.204 173.492 185.326C173.358 185.444 173.238 185.588 173.132 185.758C173.03 185.929 172.934 186.124 172.844 186.342V191.398H170.868V183.19H172.028C172.23 183.19 172.372 183.228 172.452 183.302C172.532 183.372 172.585 183.5 172.612 183.686L172.732 184.614ZM187.855 181.934C187.791 182.046 187.722 182.129 187.647 182.182C187.578 182.23 187.49 182.254 187.383 182.254C187.271 182.254 187.149 182.214 187.015 182.134C186.887 182.049 186.733 181.956 186.551 181.854C186.37 181.753 186.157 181.662 185.911 181.582C185.671 181.497 185.386 181.454 185.055 181.454C184.757 181.454 184.495 181.492 184.271 181.566C184.047 181.636 183.858 181.734 183.703 181.862C183.554 181.99 183.442 182.145 183.367 182.326C183.293 182.502 183.255 182.697 183.255 182.91C183.255 183.182 183.33 183.409 183.479 183.59C183.634 183.772 183.837 183.926 184.087 184.054C184.338 184.182 184.623 184.297 184.943 184.398C185.263 184.5 185.591 184.609 185.927 184.726C186.263 184.838 186.591 184.972 186.911 185.126C187.231 185.276 187.517 185.468 187.767 185.702C188.018 185.932 188.218 186.214 188.367 186.55C188.522 186.886 188.599 187.294 188.599 187.774C188.599 188.297 188.509 188.788 188.327 189.246C188.151 189.7 187.89 190.097 187.543 190.438C187.202 190.774 186.783 191.041 186.287 191.238C185.791 191.43 185.223 191.526 184.583 191.526C184.215 191.526 183.853 191.489 183.495 191.414C183.138 191.345 182.794 191.244 182.463 191.11C182.138 190.977 181.831 190.817 181.543 190.63C181.255 190.444 180.999 190.236 180.775 190.006L181.407 188.974C181.461 188.9 181.53 188.838 181.615 188.79C181.701 188.737 181.791 188.71 181.887 188.71C182.021 188.71 182.165 188.766 182.319 188.878C182.474 188.985 182.658 189.105 182.871 189.238C183.085 189.372 183.333 189.494 183.615 189.606C183.903 189.713 184.247 189.766 184.647 189.766C185.261 189.766 185.735 189.622 186.071 189.334C186.407 189.041 186.575 188.622 186.575 188.078C186.575 187.774 186.498 187.526 186.343 187.334C186.194 187.142 185.994 186.982 185.743 186.854C185.493 186.721 185.207 186.609 184.887 186.518C184.567 186.428 184.242 186.329 183.911 186.222C183.581 186.116 183.255 185.988 182.935 185.838C182.615 185.689 182.33 185.494 182.079 185.254C181.829 185.014 181.626 184.716 181.471 184.358C181.322 183.996 181.247 183.55 181.247 183.022C181.247 182.601 181.33 182.19 181.495 181.79C181.666 181.39 181.911 181.036 182.231 180.726C182.551 180.417 182.946 180.169 183.415 179.982C183.885 179.796 184.423 179.702 185.031 179.702C185.714 179.702 186.343 179.809 186.919 180.022C187.495 180.236 187.986 180.534 188.391 180.918L187.855 181.934ZM192.555 179.51V191.398H190.579V179.51H192.555ZM198.656 183.062C199.264 183.062 199.816 183.161 200.312 183.358C200.813 183.556 201.24 183.836 201.592 184.198C201.949 184.561 202.224 185.004 202.416 185.526C202.608 186.049 202.704 186.633 202.704 187.278C202.704 187.929 202.608 188.516 202.416 189.038C202.224 189.561 201.949 190.006 201.592 190.374C201.24 190.742 200.813 191.025 200.312 191.222C199.816 191.42 199.264 191.518 198.656 191.518C198.043 191.518 197.485 191.42 196.984 191.222C196.483 191.025 196.053 190.742 195.696 190.374C195.344 190.006 195.069 189.561 194.872 189.038C194.68 188.516 194.584 187.929 194.584 187.278C194.584 186.633 194.68 186.049 194.872 185.526C195.069 185.004 195.344 184.561 195.696 184.198C196.053 183.836 196.483 183.556 196.984 183.358C197.485 183.161 198.043 183.062 198.656 183.062ZM198.656 189.998C199.339 189.998 199.843 189.769 200.168 189.31C200.499 188.852 200.664 188.18 200.664 187.294C200.664 186.409 200.499 185.734 200.168 185.27C199.843 184.806 199.339 184.574 198.656 184.574C197.963 184.574 197.448 184.809 197.112 185.278C196.781 185.742 196.616 186.414 196.616 187.294C196.616 188.174 196.781 188.846 197.112 189.31C197.448 189.769 197.963 189.998 198.656 189.998ZM207.291 191.526C206.577 191.526 206.027 191.326 205.643 190.926C205.265 190.521 205.075 189.964 205.075 189.254V184.67H204.235C204.129 184.67 204.038 184.636 203.963 184.566C203.889 184.497 203.851 184.393 203.851 184.254V183.47L205.171 183.254L205.587 181.014C205.614 180.908 205.665 180.825 205.739 180.766C205.814 180.708 205.91 180.678 206.027 180.678H207.051V183.262H209.243V184.67H207.051V189.118C207.051 189.374 207.113 189.574 207.235 189.718C207.363 189.862 207.537 189.934 207.755 189.934C207.878 189.934 207.979 189.921 208.059 189.894C208.145 189.862 208.217 189.83 208.275 189.798C208.339 189.766 208.395 189.737 208.443 189.71C208.491 189.678 208.539 189.662 208.587 189.662C208.646 189.662 208.694 189.678 208.731 189.71C208.769 189.737 208.809 189.78 208.851 189.838L209.443 190.798C209.155 191.038 208.825 191.22 208.451 191.342C208.078 191.465 207.691 191.526 207.291 191.526Z" fill="#212121"/>
<defs>
<clipPath id="clip0_13255_40313">
<rect width="50" height="43" fill="white" transform="translate(44.8517 188.444) rotate(-45.9957)"/>
</clipPath>
</defs>
</svg>
