<svg width="35" height="38" viewBox="0 0 35 38" fill="none" xmlns="http://www.w3.org/2000/svg">
<path d="M1.12094 0.932878C0.68401 1.37882 0.431152 2.07312 0.431152 2.97225V35.0439C0.431152 35.943 0.68401 36.6373 1.12094 37.0833L1.22877 37.1812L19.6614 19.2165V18.7924L1.22877 0.827741L1.12094 0.932878Z" fill="url(#paint0_linear_15073_9586)"/>
<path d="M25.799 25.2075L19.6616 19.2163V18.7921L25.8065 12.8009L25.9441 12.8788L33.2212 16.9159C35.298 18.0616 35.298 19.9468 33.2212 21.0998L25.9441 25.1296L25.799 25.2075Z" fill="url(#paint1_linear_15073_9586)"/>
<path d="M25.944 25.13L19.6616 19.0046L1.12109 37.0834C1.81088 37.7904 2.93573 37.8756 4.2149 37.1686L25.944 25.13Z" fill="url(#paint2_linear_15073_9586)"/>
<path d="M25.944 12.879L4.2149 0.840383C2.93573 0.140652 1.81088 0.225851 1.12109 0.932832L19.6616 19.0044L25.944 12.879Z" fill="url(#paint3_linear_15073_9586)"/>
<defs>
<linearGradient id="paint0_linear_15073_9586" x1="18.0248" y1="35.3779" x2="-6.30554" y2="10.4236" gradientUnits="userSpaceOnUse">
<stop stop-color="#00A0FF"/>
<stop offset="0.0066" stop-color="#00A1FF"/>
<stop offset="0.2601" stop-color="#00BEFF"/>
<stop offset="0.5122" stop-color="#00D2FF"/>
<stop offset="0.7604" stop-color="#00DFFF"/>
<stop offset="1" stop-color="#00E3FF"/>
</linearGradient>
<linearGradient id="paint1_linear_15073_9586" x1="35.9255" y1="19.0022" x2="-0.0650939" y2="19.0022" gradientUnits="userSpaceOnUse">
<stop stop-color="#FFE000"/>
<stop offset="0.4087" stop-color="#FFBD00"/>
<stop offset="0.7754" stop-color="#FFA500"/>
<stop offset="1" stop-color="#FF9C00"/>
</linearGradient>
<linearGradient id="paint2_linear_15073_9586" x1="22.5278" y1="15.6748" x2="-10.4661" y2="-18.1652" gradientUnits="userSpaceOnUse">
<stop stop-color="#FF3A44"/>
<stop offset="1" stop-color="#C31162"/>
</linearGradient>
<linearGradient id="paint3_linear_15073_9586" x1="-3.54594" y1="47.7533" x2="11.1874" y2="32.6424" gradientUnits="userSpaceOnUse">
<stop stop-color="#32A071"/>
<stop offset="0.0685" stop-color="#2DA771"/>
<stop offset="0.4762" stop-color="#15CF74"/>
<stop offset="0.8009" stop-color="#06E775"/>
<stop offset="1" stop-color="#00F076"/>
</linearGradient>
</defs>
</svg>
