<svg width="346" height="154" viewBox="0 0 346 154" fill="none" xmlns="http://www.w3.org/2000/svg">
<g filter="url(#filter0_d_13148_37785)">
<path d="M17 27C17 18.1634 24.1634 11 33 11H313C321.837 11 329 18.1634 329 27V115C329 123.837 321.837 131 313 131H33C24.1634 131 17 123.837 17 115V27Z" fill="#FAFAFA" fill-opacity="0.95" shape-rendering="crispEdges"/>
<path d="M313 10.5C322.113 10.5 329.5 17.8873 329.5 27V115C329.5 124.113 322.113 131.5 313 131.5H33C23.8873 131.5 16.5 124.113 16.5 115V27C16.5 17.8873 23.8873 10.5 33 10.5H313Z" stroke="white" shape-rendering="crispEdges"/>
<g filter="url(#filter1_d_13148_37785)">
<path d="M51 43C51 34.1634 58.1634 27 67 27H87C95.8366 27 103 34.1634 103 43V63C103 71.8366 95.8366 79 87 79H67C58.1634 79 51 71.8366 51 63V43Z" fill="white" fill-opacity="0.5" shape-rendering="crispEdges"/>
<path d="M87 26.5C96.1127 26.5 103.5 33.8873 103.5 43V63C103.5 72.1127 96.1127 79.5 87 79.5H67C57.8873 79.5 50.5 72.1127 50.5 63V43C50.5 33.8873 57.8873 26.5 67 26.5H87Z" stroke="#EEEAFF" shape-rendering="crispEdges"/>
<path d="M77.0003 64.6666C81.1887 64.6666 84.5837 61.715 84.5837 58.075V53.7583C84.5837 57.3983 81.1887 60 77.0003 60C72.812 60 69.417 57.3983 69.417 53.7583V58.075C69.417 60.07 70.432 61.855 72.042 63.0566" stroke="#3F21B5" stroke-width="1.5" stroke-linecap="round" stroke-linejoin="round"/>
<path d="M84.5837 47.9252C84.5837 48.9868 84.292 49.9668 83.7787 50.8068C82.5303 52.8602 79.9637 54.1668 77.0003 54.1668C74.037 54.1668 71.4703 52.8602 70.222 50.8068C69.7087 49.9668 69.417 48.9868 69.417 47.9252C69.417 46.1052 70.2687 44.4602 71.6337 43.2702C73.0103 42.0685 74.9003 41.3335 77.0003 41.3335C79.1003 41.3335 80.9903 42.0685 82.367 43.2585C83.732 44.4602 84.5837 46.1052 84.5837 47.9252Z" stroke="#3F21B5" stroke-width="1.5" stroke-linecap="round" stroke-linejoin="round"/>
<path d="M84.5837 47.9252V53.7585C84.5837 57.3985 81.1887 60.0002 77.0003 60.0002C72.812 60.0002 69.417 57.3985 69.417 53.7585V47.9252C69.417 44.2852 72.812 41.3335 77.0003 41.3335C79.1003 41.3335 80.9903 42.0685 82.367 43.2585C83.732 44.4602 84.5837 46.1052 84.5837 47.9252Z" stroke="#3F21B5" stroke-width="1.5" stroke-linecap="round" stroke-linejoin="round"/>
</g>
<path d="M40.9739 98.86C41.3059 98.86 41.5979 98.816 41.8499 98.728C42.1059 98.64 42.3199 98.518 42.4919 98.362C42.6679 98.202 42.7999 98.012 42.8879 97.792C42.9759 97.572 43.0199 97.33 43.0199 97.066C43.0199 96.518 42.8499 96.09 42.5099 95.782C42.1739 95.474 41.6619 95.32 40.9739 95.32H39.5939V98.86H40.9739ZM40.9739 94.402C41.5179 94.402 41.9899 94.466 42.3899 94.594C42.7939 94.718 43.1279 94.896 43.3919 95.128C43.6559 95.36 43.8519 95.64 43.9799 95.968C44.1119 96.296 44.1779 96.662 44.1779 97.066C44.1779 97.466 44.1079 97.832 43.9679 98.164C43.8279 98.496 43.6219 98.782 43.3499 99.022C43.0819 99.262 42.7479 99.45 42.3479 99.586C41.9519 99.718 41.4939 99.784 40.9739 99.784H39.5939V103H38.4359V94.402H40.9739ZM49.6425 99.298C49.6425 99.05 49.6065 98.824 49.5345 98.62C49.4665 98.412 49.3645 98.234 49.2285 98.086C49.0965 97.934 48.9345 97.818 48.7425 97.738C48.5505 97.654 48.3325 97.612 48.0885 97.612C47.5765 97.612 47.1705 97.762 46.8705 98.062C46.5745 98.358 46.3905 98.77 46.3185 99.298H49.6425ZM50.5065 102.148C50.3745 102.308 50.2165 102.448 50.0325 102.568C49.8485 102.684 49.6505 102.78 49.4385 102.856C49.2305 102.932 49.0145 102.988 48.7905 103.024C48.5665 103.064 48.3445 103.084 48.1245 103.084C47.7045 103.084 47.3165 103.014 46.9605 102.874C46.6085 102.73 46.3025 102.522 46.0425 102.25C45.7865 101.974 45.5865 101.634 45.4425 101.23C45.2985 100.826 45.2265 100.362 45.2265 99.838C45.2265 99.414 45.2905 99.018 45.4185 98.65C45.5505 98.282 45.7385 97.964 45.9825 97.696C46.2265 97.424 46.5245 97.212 46.8765 97.06C47.2285 96.904 47.6245 96.826 48.0645 96.826C48.4285 96.826 48.7645 96.888 49.0725 97.012C49.3845 97.132 49.6525 97.308 49.8765 97.54C50.1045 97.768 50.2825 98.052 50.4105 98.392C50.5385 98.728 50.6025 99.112 50.6025 99.544C50.6025 99.712 50.5845 99.824 50.5485 99.88C50.5125 99.936 50.4445 99.964 50.3445 99.964H46.2825C46.2945 100.348 46.3465 100.682 46.4385 100.966C46.5345 101.25 46.6665 101.488 46.8345 101.68C47.0025 101.868 47.2025 102.01 47.4345 102.106C47.6665 102.198 47.9265 102.244 48.2145 102.244C48.4825 102.244 48.7125 102.214 48.9045 102.154C49.1005 102.09 49.2685 102.022 49.4085 101.95C49.5485 101.878 49.6645 101.812 49.7565 101.752C49.8525 101.688 49.9345 101.656 50.0025 101.656C50.0905 101.656 50.1585 101.69 50.2065 101.758L50.5065 102.148ZM53.4284 98.14C53.6204 97.724 53.8564 97.4 54.1364 97.168C54.4164 96.932 54.7584 96.814 55.1624 96.814C55.2904 96.814 55.4124 96.828 55.5284 96.856C55.6484 96.884 55.7544 96.928 55.8464 96.988L55.7684 97.786C55.7444 97.886 55.6844 97.936 55.5884 97.936C55.5324 97.936 55.4504 97.924 55.3424 97.9C55.2344 97.876 55.1124 97.864 54.9764 97.864C54.7844 97.864 54.6124 97.892 54.4604 97.948C54.3124 98.004 54.1784 98.088 54.0584 98.2C53.9424 98.308 53.8364 98.444 53.7404 98.608C53.6484 98.768 53.5644 98.952 53.4884 99.16V103H52.4144V96.922H53.0264C53.1424 96.922 53.2224 96.944 53.2664 96.988C53.3104 97.032 53.3404 97.108 53.3564 97.216L53.4284 98.14ZM60.7903 97.924C60.7423 98.012 60.6683 98.056 60.5683 98.056C60.5083 98.056 60.4403 98.034 60.3643 97.99C60.2883 97.946 60.1943 97.898 60.0823 97.846C59.9743 97.79 59.8443 97.74 59.6923 97.696C59.5403 97.648 59.3603 97.624 59.1523 97.624C58.9723 97.624 58.8103 97.648 58.6663 97.696C58.5223 97.74 58.3983 97.802 58.2943 97.882C58.1943 97.962 58.1163 98.056 58.0603 98.164C58.0083 98.268 57.9823 98.382 57.9823 98.506C57.9823 98.662 58.0263 98.792 58.1143 98.896C58.2063 99 58.3263 99.09 58.4743 99.166C58.6223 99.242 58.7903 99.31 58.9783 99.37C59.1663 99.426 59.3583 99.488 59.5543 99.556C59.7543 99.62 59.9483 99.692 60.1363 99.772C60.3243 99.852 60.4923 99.952 60.6403 100.072C60.7883 100.192 60.9063 100.34 60.9943 100.516C61.0863 100.688 61.1323 100.896 61.1323 101.14C61.1323 101.42 61.0823 101.68 60.9823 101.92C60.8823 102.156 60.7343 102.362 60.5383 102.538C60.3423 102.71 60.1023 102.846 59.8183 102.946C59.5343 103.046 59.2063 103.096 58.8343 103.096C58.4103 103.096 58.0263 103.028 57.6823 102.892C57.3383 102.752 57.0463 102.574 56.8063 102.358L57.0583 101.95C57.0903 101.898 57.1283 101.858 57.1723 101.83C57.2163 101.802 57.2723 101.788 57.3403 101.788C57.4123 101.788 57.4883 101.816 57.5683 101.872C57.6483 101.928 57.7443 101.99 57.8563 102.058C57.9723 102.126 58.1123 102.188 58.2763 102.244C58.4403 102.3 58.6443 102.328 58.8883 102.328C59.0963 102.328 59.2783 102.302 59.4343 102.25C59.5903 102.194 59.7203 102.12 59.8243 102.028C59.9283 101.936 60.0043 101.83 60.0523 101.71C60.1043 101.59 60.1303 101.462 60.1303 101.326C60.1303 101.158 60.0843 101.02 59.9923 100.912C59.9043 100.8 59.7863 100.706 59.6383 100.63C59.4903 100.55 59.3203 100.482 59.1283 100.426C58.9403 100.366 58.7463 100.304 58.5463 100.24C58.3503 100.176 58.1563 100.104 57.9643 100.024C57.7763 99.94 57.6083 99.836 57.4603 99.712C57.3123 99.588 57.1923 99.436 57.1003 99.256C57.0123 99.072 56.9683 98.85 56.9683 98.59C56.9683 98.358 57.0163 98.136 57.1123 97.924C57.2083 97.708 57.3483 97.52 57.5323 97.36C57.7163 97.196 57.9423 97.066 58.2103 96.97C58.4783 96.874 58.7843 96.826 59.1283 96.826C59.5283 96.826 59.8863 96.89 60.2023 97.018C60.5223 97.142 60.7983 97.314 61.0303 97.534L60.7903 97.924ZM65.5037 96.826C65.9477 96.826 66.3477 96.9 66.7037 97.048C67.0597 97.196 67.3637 97.406 67.6157 97.678C67.8677 97.95 68.0597 98.28 68.1917 98.668C68.3277 99.052 68.3957 99.482 68.3957 99.958C68.3957 100.438 68.3277 100.87 68.1917 101.254C68.0597 101.638 67.8677 101.966 67.6157 102.238C67.3637 102.51 67.0597 102.72 66.7037 102.868C66.3477 103.012 65.9477 103.084 65.5037 103.084C65.0557 103.084 64.6517 103.012 64.2917 102.868C63.9357 102.72 63.6317 102.51 63.3797 102.238C63.1277 101.966 62.9337 101.638 62.7977 101.254C62.6657 100.87 62.5997 100.438 62.5997 99.958C62.5997 99.482 62.6657 99.052 62.7977 98.668C62.9337 98.28 63.1277 97.95 63.3797 97.678C63.6317 97.406 63.9357 97.196 64.2917 97.048C64.6517 96.9 65.0557 96.826 65.5037 96.826ZM65.5037 102.25C66.1037 102.25 66.5517 102.05 66.8477 101.65C67.1437 101.246 67.2917 100.684 67.2917 99.964C67.2917 99.24 67.1437 98.676 66.8477 98.272C66.5517 97.868 66.1037 97.666 65.5037 97.666C65.1997 97.666 64.9337 97.718 64.7057 97.822C64.4817 97.926 64.2937 98.076 64.1417 98.272C63.9937 98.468 63.8817 98.71 63.8057 98.998C63.7337 99.282 63.6977 99.604 63.6977 99.964C63.6977 100.684 63.8457 101.246 64.1417 101.65C64.4417 102.05 64.8957 102.25 65.5037 102.25ZM71.2583 97.804C71.3903 97.656 71.5303 97.522 71.6783 97.402C71.8263 97.282 71.9823 97.18 72.1463 97.096C72.3143 97.008 72.4903 96.942 72.6743 96.898C72.8623 96.85 73.0643 96.826 73.2803 96.826C73.6123 96.826 73.9043 96.882 74.1563 96.994C74.4123 97.102 74.6243 97.258 74.7923 97.462C74.9643 97.662 75.0943 97.904 75.1823 98.188C75.2703 98.472 75.3143 98.786 75.3143 99.13V103H74.2403V99.13C74.2403 98.67 74.1343 98.314 73.9223 98.062C73.7143 97.806 73.3963 97.678 72.9683 97.678C72.6523 97.678 72.3563 97.754 72.0803 97.906C71.8083 98.058 71.5563 98.264 71.3243 98.524V103H70.2503V96.922H70.8923C71.0443 96.922 71.1383 96.996 71.1743 97.144L71.2583 97.804ZM80.7357 100.264C80.2437 100.28 79.8237 100.32 79.4757 100.384C79.1317 100.444 78.8497 100.524 78.6297 100.624C78.4137 100.724 78.2557 100.842 78.1557 100.978C78.0597 101.114 78.0117 101.266 78.0117 101.434C78.0117 101.594 78.0377 101.732 78.0897 101.848C78.1417 101.964 78.2117 102.06 78.2997 102.136C78.3917 102.208 78.4977 102.262 78.6177 102.298C78.7417 102.33 78.8737 102.346 79.0137 102.346C79.2017 102.346 79.3737 102.328 79.5297 102.292C79.6857 102.252 79.8317 102.196 79.9677 102.124C80.1077 102.052 80.2397 101.966 80.3637 101.866C80.4917 101.766 80.6157 101.652 80.7357 101.524V100.264ZM77.2857 97.78C77.6217 97.456 77.9837 97.214 78.3717 97.054C78.7597 96.894 79.1897 96.814 79.6617 96.814C80.0017 96.814 80.3037 96.87 80.5677 96.982C80.8317 97.094 81.0537 97.25 81.2337 97.45C81.4137 97.65 81.5497 97.892 81.6417 98.176C81.7337 98.46 81.7797 98.772 81.7797 99.112V103H81.3057C81.2017 103 81.1217 102.984 81.0657 102.952C81.0097 102.916 80.9657 102.848 80.9337 102.748L80.8137 102.172C80.6537 102.32 80.4977 102.452 80.3457 102.568C80.1937 102.68 80.0337 102.776 79.8657 102.856C79.6977 102.932 79.5177 102.99 79.3257 103.03C79.1377 103.074 78.9277 103.096 78.6957 103.096C78.4597 103.096 78.2377 103.064 78.0297 103C77.8217 102.932 77.6397 102.832 77.4837 102.7C77.3317 102.568 77.2097 102.402 77.1177 102.202C77.0297 101.998 76.9857 101.758 76.9857 101.482C76.9857 101.242 77.0517 101.012 77.1837 100.792C77.3157 100.568 77.5297 100.37 77.8257 100.198C78.1217 100.026 78.5077 99.886 78.9837 99.778C79.4597 99.666 80.0437 99.602 80.7357 99.586V99.112C80.7357 98.64 80.6337 98.284 80.4297 98.044C80.2257 97.8 79.9277 97.678 79.5357 97.678C79.2717 97.678 79.0497 97.712 78.8697 97.78C78.6937 97.844 78.5397 97.918 78.4077 98.002C78.2797 98.082 78.1677 98.156 78.0717 98.224C77.9797 98.288 77.8877 98.32 77.7957 98.32C77.7237 98.32 77.6617 98.302 77.6097 98.266C77.5577 98.226 77.5137 98.178 77.4777 98.122L77.2857 97.78ZM85.0105 94.162V103H83.9425V94.162H85.0105ZM95.9428 102.022V103H91.0648V94.402H92.2228V102.022H95.9428ZM99.6053 96.826C100.049 96.826 100.449 96.9 100.805 97.048C101.161 97.196 101.465 97.406 101.717 97.678C101.969 97.95 102.161 98.28 102.293 98.668C102.429 99.052 102.497 99.482 102.497 99.958C102.497 100.438 102.429 100.87 102.293 101.254C102.161 101.638 101.969 101.966 101.717 102.238C101.465 102.51 101.161 102.72 100.805 102.868C100.449 103.012 100.049 103.084 99.6053 103.084C99.1573 103.084 98.7533 103.012 98.3933 102.868C98.0373 102.72 97.7333 102.51 97.4813 102.238C97.2293 101.966 97.0353 101.638 96.8993 101.254C96.7673 100.87 96.7013 100.438 96.7013 99.958C96.7013 99.482 96.7673 99.052 96.8993 98.668C97.0353 98.28 97.2293 97.95 97.4813 97.678C97.7333 97.406 98.0373 97.196 98.3933 97.048C98.7533 96.9 99.1573 96.826 99.6053 96.826ZM99.6053 102.25C100.205 102.25 100.653 102.05 100.949 101.65C101.245 101.246 101.393 100.684 101.393 99.964C101.393 99.24 101.245 98.676 100.949 98.272C100.653 97.868 100.205 97.666 99.6053 97.666C99.3013 97.666 99.0353 97.718 98.8073 97.822C98.5833 97.926 98.3953 98.076 98.2433 98.272C98.0953 98.468 97.9833 98.71 97.9073 98.998C97.8353 99.282 97.7993 99.604 97.7993 99.964C97.7993 100.684 97.9473 101.246 98.2433 101.65C98.5433 102.05 98.9973 102.25 99.6053 102.25ZM107.646 100.264C107.154 100.28 106.734 100.32 106.386 100.384C106.042 100.444 105.76 100.524 105.54 100.624C105.324 100.724 105.166 100.842 105.066 100.978C104.97 101.114 104.922 101.266 104.922 101.434C104.922 101.594 104.948 101.732 105 101.848C105.052 101.964 105.122 102.06 105.21 102.136C105.302 102.208 105.408 102.262 105.528 102.298C105.652 102.33 105.784 102.346 105.924 102.346C106.112 102.346 106.284 102.328 106.44 102.292C106.596 102.252 106.742 102.196 106.878 102.124C107.018 102.052 107.15 101.966 107.274 101.866C107.402 101.766 107.526 101.652 107.646 101.524V100.264ZM104.196 97.78C104.532 97.456 104.894 97.214 105.282 97.054C105.67 96.894 106.1 96.814 106.572 96.814C106.912 96.814 107.214 96.87 107.478 96.982C107.742 97.094 107.964 97.25 108.144 97.45C108.324 97.65 108.46 97.892 108.552 98.176C108.644 98.46 108.69 98.772 108.69 99.112V103H108.216C108.112 103 108.032 102.984 107.976 102.952C107.92 102.916 107.876 102.848 107.844 102.748L107.724 102.172C107.564 102.32 107.408 102.452 107.256 102.568C107.104 102.68 106.944 102.776 106.776 102.856C106.608 102.932 106.428 102.99 106.236 103.03C106.048 103.074 105.838 103.096 105.606 103.096C105.37 103.096 105.148 103.064 104.94 103C104.732 102.932 104.55 102.832 104.394 102.7C104.242 102.568 104.12 102.402 104.028 102.202C103.94 101.998 103.896 101.758 103.896 101.482C103.896 101.242 103.962 101.012 104.094 100.792C104.226 100.568 104.44 100.37 104.736 100.198C105.032 100.026 105.418 99.886 105.894 99.778C106.37 99.666 106.954 99.602 107.646 99.586V99.112C107.646 98.64 107.544 98.284 107.34 98.044C107.136 97.8 106.838 97.678 106.446 97.678C106.182 97.678 105.96 97.712 105.78 97.78C105.604 97.844 105.45 97.918 105.318 98.002C105.19 98.082 105.078 98.156 104.982 98.224C104.89 98.288 104.798 98.32 104.706 98.32C104.634 98.32 104.572 98.302 104.52 98.266C104.468 98.226 104.424 98.178 104.388 98.122L104.196 97.78ZM111.825 97.804C111.957 97.656 112.097 97.522 112.245 97.402C112.393 97.282 112.549 97.18 112.713 97.096C112.881 97.008 113.057 96.942 113.241 96.898C113.429 96.85 113.631 96.826 113.847 96.826C114.179 96.826 114.471 96.882 114.723 96.994C114.979 97.102 115.191 97.258 115.359 97.462C115.531 97.662 115.661 97.904 115.749 98.188C115.837 98.472 115.881 98.786 115.881 99.13V103H114.807V99.13C114.807 98.67 114.701 98.314 114.489 98.062C114.281 97.806 113.963 97.678 113.535 97.678C113.219 97.678 112.923 97.754 112.647 97.906C112.375 98.058 112.123 98.264 111.891 98.524V103H110.817V96.922H111.459C111.611 96.922 111.705 96.996 111.741 97.144L111.825 97.804Z" fill="#212121"/>
<g filter="url(#filter2_d_13148_37785)">
<path d="M147 43C147 34.1634 154.163 27 163 27H183C191.837 27 199 34.1634 199 43V63C199 71.8366 191.837 79 183 79H163C154.163 79 147 71.8366 147 63V43Z" fill="white" fill-opacity="0.5" shape-rendering="crispEdges"/>
<path d="M183 26.5C192.113 26.5 199.5 33.8873 199.5 43V63C199.5 72.1127 192.113 79.5 183 79.5H163C153.887 79.5 146.5 72.1127 146.5 63V43C146.5 33.8873 153.887 26.5 163 26.5H183Z" stroke="#EEEAFF" shape-rendering="crispEdges"/>
<path d="M161.298 45.9417V44.9384C161.298 41.8817 163.573 40.4934 166.361 41.8584L171.541 44.4017C172.661 44.9501 173.583 46.4084 173.583 47.6451V64.6667H163.76C162.406 64.6667 161.298 63.5817 161.298 62.2517V50.6901" stroke="#3F21B5" stroke-width="1.5" stroke-linecap="round" stroke-linejoin="round"/>
<path d="M184.631 56.5701V60.9801C184.631 63.5001 183.465 64.6667 180.945 64.6667H173.583V51.1567L174.131 51.2734L179.381 52.4517L181.75 52.9767C183.29 53.3151 184.55 54.1084 184.62 56.3484C184.631 56.4184 184.631 56.4884 184.631 56.5701Z" stroke="#3F21B5" stroke-width="1.5" stroke-linecap="round" stroke-linejoin="round"/>
<path d="M165.417 49.5H169.465" stroke="#3F21B5" stroke-width="1.5" stroke-linecap="round" stroke-linejoin="round"/>
<path d="M165.417 54.1665H169.465" stroke="#3F21B5" stroke-width="1.5" stroke-linecap="round" stroke-linejoin="round"/>
<path d="M179.382 52.4518V56.2084C179.382 57.6551 178.204 58.8334 176.757 58.8334C175.31 58.8334 174.132 57.6551 174.132 56.2084V51.2734L179.382 52.4518Z" stroke="#3F21B5" stroke-width="1.5" stroke-linecap="round" stroke-linejoin="round"/>
<path d="M184.62 56.3483C184.55 57.725 183.407 58.8333 182.007 58.8333C180.56 58.8333 179.382 57.655 179.382 56.2083V52.4517L181.75 52.9767C183.29 53.315 184.55 54.1083 184.62 56.3483Z" stroke="#3F21B5" stroke-width="1.5" stroke-linecap="round" stroke-linejoin="round"/>
</g>
<path d="M152.212 102.076C152.544 102.076 152.83 102.038 153.07 101.962C153.31 101.886 153.506 101.78 153.658 101.644C153.814 101.504 153.928 101.34 154 101.152C154.072 100.96 154.108 100.75 154.108 100.522C154.108 100.078 153.95 99.728 153.634 99.472C153.318 99.212 152.844 99.082 152.212 99.082H150.352V102.076H152.212ZM150.352 95.32V98.254H151.888C152.216 98.254 152.5 98.218 152.74 98.146C152.984 98.074 153.184 97.974 153.34 97.846C153.5 97.718 153.618 97.564 153.694 97.384C153.77 97.2 153.808 97 153.808 96.784C153.808 96.276 153.656 95.906 153.352 95.674C153.048 95.438 152.576 95.32 151.936 95.32H150.352ZM151.936 94.402C152.464 94.402 152.918 94.454 153.298 94.558C153.682 94.662 153.996 94.81 154.24 95.002C154.488 95.194 154.67 95.43 154.786 95.71C154.902 95.986 154.96 96.298 154.96 96.646C154.96 96.858 154.926 97.062 154.858 97.258C154.794 97.45 154.696 97.63 154.564 97.798C154.432 97.966 154.264 98.118 154.06 98.254C153.86 98.386 153.624 98.494 153.352 98.578C153.984 98.698 154.458 98.924 154.774 99.256C155.094 99.584 155.254 100.016 155.254 100.552C155.254 100.916 155.186 101.248 155.05 101.548C154.918 101.848 154.722 102.106 154.462 102.322C154.206 102.538 153.89 102.706 153.514 102.826C153.138 102.942 152.71 103 152.23 103H149.194V94.402H151.936ZM162.069 96.922V103H161.433C161.281 103 161.185 102.926 161.145 102.778L161.061 102.124C160.797 102.416 160.501 102.652 160.173 102.832C159.845 103.008 159.469 103.096 159.045 103.096C158.713 103.096 158.419 103.042 158.163 102.934C157.911 102.822 157.699 102.666 157.527 102.466C157.355 102.266 157.225 102.024 157.137 101.74C157.053 101.456 157.011 101.142 157.011 100.798V96.922H158.079V100.798C158.079 101.258 158.183 101.614 158.391 101.866C158.603 102.118 158.925 102.244 159.357 102.244C159.673 102.244 159.967 102.17 160.239 102.022C160.515 101.87 160.769 101.662 161.001 101.398V96.922H162.069ZM167.802 97.924C167.754 98.012 167.68 98.056 167.58 98.056C167.52 98.056 167.452 98.034 167.376 97.99C167.3 97.946 167.206 97.898 167.094 97.846C166.986 97.79 166.856 97.74 166.704 97.696C166.552 97.648 166.372 97.624 166.164 97.624C165.984 97.624 165.822 97.648 165.678 97.696C165.534 97.74 165.41 97.802 165.306 97.882C165.206 97.962 165.128 98.056 165.072 98.164C165.02 98.268 164.994 98.382 164.994 98.506C164.994 98.662 165.038 98.792 165.126 98.896C165.218 99 165.338 99.09 165.486 99.166C165.634 99.242 165.802 99.31 165.99 99.37C166.178 99.426 166.37 99.488 166.566 99.556C166.766 99.62 166.96 99.692 167.148 99.772C167.336 99.852 167.504 99.952 167.652 100.072C167.8 100.192 167.918 100.34 168.006 100.516C168.098 100.688 168.144 100.896 168.144 101.14C168.144 101.42 168.094 101.68 167.994 101.92C167.894 102.156 167.746 102.362 167.55 102.538C167.354 102.71 167.114 102.846 166.83 102.946C166.546 103.046 166.218 103.096 165.846 103.096C165.422 103.096 165.038 103.028 164.694 102.892C164.35 102.752 164.058 102.574 163.818 102.358L164.07 101.95C164.102 101.898 164.14 101.858 164.184 101.83C164.228 101.802 164.284 101.788 164.352 101.788C164.424 101.788 164.5 101.816 164.58 101.872C164.66 101.928 164.756 101.99 164.868 102.058C164.984 102.126 165.124 102.188 165.288 102.244C165.452 102.3 165.656 102.328 165.9 102.328C166.108 102.328 166.29 102.302 166.446 102.25C166.602 102.194 166.732 102.12 166.836 102.028C166.94 101.936 167.016 101.83 167.064 101.71C167.116 101.59 167.142 101.462 167.142 101.326C167.142 101.158 167.096 101.02 167.004 100.912C166.916 100.8 166.798 100.706 166.65 100.63C166.502 100.55 166.332 100.482 166.14 100.426C165.952 100.366 165.758 100.304 165.558 100.24C165.362 100.176 165.168 100.104 164.976 100.024C164.788 99.94 164.62 99.836 164.472 99.712C164.324 99.588 164.204 99.436 164.112 99.256C164.024 99.072 163.98 98.85 163.98 98.59C163.98 98.358 164.028 98.136 164.124 97.924C164.22 97.708 164.36 97.52 164.544 97.36C164.728 97.196 164.954 97.066 165.222 96.97C165.49 96.874 165.796 96.826 166.14 96.826C166.54 96.826 166.898 96.89 167.214 97.018C167.534 97.142 167.81 97.314 168.042 97.534L167.802 97.924ZM171.081 96.922V103H170.013V96.922H171.081ZM171.309 95.014C171.309 95.118 171.287 95.216 171.243 95.308C171.203 95.396 171.147 95.476 171.075 95.548C171.007 95.616 170.925 95.67 170.829 95.71C170.737 95.75 170.639 95.77 170.535 95.77C170.431 95.77 170.333 95.75 170.241 95.71C170.153 95.67 170.075 95.616 170.007 95.548C169.939 95.476 169.885 95.396 169.845 95.308C169.805 95.216 169.785 95.118 169.785 95.014C169.785 94.91 169.805 94.812 169.845 94.72C169.885 94.624 169.939 94.542 170.007 94.474C170.075 94.402 170.153 94.346 170.241 94.306C170.333 94.266 170.431 94.246 170.535 94.246C170.639 94.246 170.737 94.266 170.829 94.306C170.925 94.346 171.007 94.402 171.075 94.474C171.147 94.542 171.203 94.624 171.243 94.72C171.287 94.812 171.309 94.91 171.309 95.014ZM174.344 97.804C174.476 97.656 174.616 97.522 174.764 97.402C174.912 97.282 175.068 97.18 175.232 97.096C175.4 97.008 175.576 96.942 175.76 96.898C175.948 96.85 176.15 96.826 176.366 96.826C176.698 96.826 176.99 96.882 177.242 96.994C177.498 97.102 177.71 97.258 177.878 97.462C178.05 97.662 178.18 97.904 178.268 98.188C178.356 98.472 178.4 98.786 178.4 99.13V103H177.326V99.13C177.326 98.67 177.22 98.314 177.008 98.062C176.8 97.806 176.482 97.678 176.054 97.678C175.738 97.678 175.442 97.754 175.166 97.906C174.894 98.058 174.642 98.264 174.41 98.524V103H173.336V96.922H173.978C174.13 96.922 174.224 96.996 174.26 97.144L174.344 97.804ZM184.596 99.298C184.596 99.05 184.56 98.824 184.488 98.62C184.42 98.412 184.318 98.234 184.182 98.086C184.05 97.934 183.888 97.818 183.696 97.738C183.504 97.654 183.286 97.612 183.042 97.612C182.53 97.612 182.124 97.762 181.824 98.062C181.528 98.358 181.344 98.77 181.272 99.298H184.596ZM185.46 102.148C185.328 102.308 185.17 102.448 184.986 102.568C184.802 102.684 184.604 102.78 184.392 102.856C184.184 102.932 183.968 102.988 183.744 103.024C183.52 103.064 183.298 103.084 183.078 103.084C182.658 103.084 182.27 103.014 181.914 102.874C181.562 102.73 181.256 102.522 180.996 102.25C180.74 101.974 180.54 101.634 180.396 101.23C180.252 100.826 180.18 100.362 180.18 99.838C180.18 99.414 180.244 99.018 180.372 98.65C180.504 98.282 180.692 97.964 180.936 97.696C181.18 97.424 181.478 97.212 181.83 97.06C182.182 96.904 182.578 96.826 183.018 96.826C183.382 96.826 183.718 96.888 184.026 97.012C184.338 97.132 184.606 97.308 184.83 97.54C185.058 97.768 185.236 98.052 185.364 98.392C185.492 98.728 185.556 99.112 185.556 99.544C185.556 99.712 185.538 99.824 185.502 99.88C185.466 99.936 185.398 99.964 185.298 99.964H181.236C181.248 100.348 181.3 100.682 181.392 100.966C181.488 101.25 181.62 101.488 181.788 101.68C181.956 101.868 182.156 102.01 182.388 102.106C182.62 102.198 182.88 102.244 183.168 102.244C183.436 102.244 183.666 102.214 183.858 102.154C184.054 102.09 184.222 102.022 184.362 101.95C184.502 101.878 184.618 101.812 184.71 101.752C184.806 101.688 184.888 101.656 184.956 101.656C185.044 101.656 185.112 101.69 185.16 101.758L185.46 102.148ZM190.907 97.924C190.859 98.012 190.785 98.056 190.685 98.056C190.625 98.056 190.557 98.034 190.481 97.99C190.405 97.946 190.311 97.898 190.199 97.846C190.091 97.79 189.961 97.74 189.809 97.696C189.657 97.648 189.477 97.624 189.269 97.624C189.089 97.624 188.927 97.648 188.783 97.696C188.639 97.74 188.515 97.802 188.411 97.882C188.311 97.962 188.233 98.056 188.177 98.164C188.125 98.268 188.099 98.382 188.099 98.506C188.099 98.662 188.143 98.792 188.231 98.896C188.323 99 188.443 99.09 188.591 99.166C188.739 99.242 188.907 99.31 189.095 99.37C189.283 99.426 189.475 99.488 189.671 99.556C189.871 99.62 190.065 99.692 190.253 99.772C190.441 99.852 190.609 99.952 190.757 100.072C190.905 100.192 191.023 100.34 191.111 100.516C191.203 100.688 191.249 100.896 191.249 101.14C191.249 101.42 191.199 101.68 191.099 101.92C190.999 102.156 190.851 102.362 190.655 102.538C190.459 102.71 190.219 102.846 189.935 102.946C189.651 103.046 189.323 103.096 188.951 103.096C188.527 103.096 188.143 103.028 187.799 102.892C187.455 102.752 187.163 102.574 186.923 102.358L187.175 101.95C187.207 101.898 187.245 101.858 187.289 101.83C187.333 101.802 187.389 101.788 187.457 101.788C187.529 101.788 187.605 101.816 187.685 101.872C187.765 101.928 187.861 101.99 187.973 102.058C188.089 102.126 188.229 102.188 188.393 102.244C188.557 102.3 188.761 102.328 189.005 102.328C189.213 102.328 189.395 102.302 189.551 102.25C189.707 102.194 189.837 102.12 189.941 102.028C190.045 101.936 190.121 101.83 190.169 101.71C190.221 101.59 190.247 101.462 190.247 101.326C190.247 101.158 190.201 101.02 190.109 100.912C190.021 100.8 189.903 100.706 189.755 100.63C189.607 100.55 189.437 100.482 189.245 100.426C189.057 100.366 188.863 100.304 188.663 100.24C188.467 100.176 188.273 100.104 188.081 100.024C187.893 99.94 187.725 99.836 187.577 99.712C187.429 99.588 187.309 99.436 187.217 99.256C187.129 99.072 187.085 98.85 187.085 98.59C187.085 98.358 187.133 98.136 187.229 97.924C187.325 97.708 187.465 97.52 187.649 97.36C187.833 97.196 188.059 97.066 188.327 96.97C188.595 96.874 188.901 96.826 189.245 96.826C189.645 96.826 190.003 96.89 190.319 97.018C190.639 97.142 190.915 97.314 191.147 97.534L190.907 97.924ZM196.599 97.924C196.551 98.012 196.477 98.056 196.377 98.056C196.317 98.056 196.249 98.034 196.173 97.99C196.097 97.946 196.003 97.898 195.891 97.846C195.783 97.79 195.653 97.74 195.501 97.696C195.349 97.648 195.169 97.624 194.961 97.624C194.781 97.624 194.619 97.648 194.475 97.696C194.331 97.74 194.207 97.802 194.103 97.882C194.003 97.962 193.925 98.056 193.869 98.164C193.817 98.268 193.791 98.382 193.791 98.506C193.791 98.662 193.835 98.792 193.923 98.896C194.015 99 194.135 99.09 194.283 99.166C194.431 99.242 194.599 99.31 194.787 99.37C194.975 99.426 195.167 99.488 195.363 99.556C195.563 99.62 195.757 99.692 195.945 99.772C196.133 99.852 196.301 99.952 196.449 100.072C196.597 100.192 196.715 100.34 196.803 100.516C196.895 100.688 196.941 100.896 196.941 101.14C196.941 101.42 196.891 101.68 196.791 101.92C196.691 102.156 196.543 102.362 196.347 102.538C196.151 102.71 195.911 102.846 195.627 102.946C195.343 103.046 195.015 103.096 194.643 103.096C194.219 103.096 193.835 103.028 193.491 102.892C193.147 102.752 192.855 102.574 192.615 102.358L192.867 101.95C192.899 101.898 192.937 101.858 192.981 101.83C193.025 101.802 193.081 101.788 193.149 101.788C193.221 101.788 193.297 101.816 193.377 101.872C193.457 101.928 193.553 101.99 193.665 102.058C193.781 102.126 193.921 102.188 194.085 102.244C194.249 102.3 194.453 102.328 194.697 102.328C194.905 102.328 195.087 102.302 195.243 102.25C195.399 102.194 195.529 102.12 195.633 102.028C195.737 101.936 195.813 101.83 195.861 101.71C195.913 101.59 195.939 101.462 195.939 101.326C195.939 101.158 195.893 101.02 195.801 100.912C195.713 100.8 195.595 100.706 195.447 100.63C195.299 100.55 195.129 100.482 194.937 100.426C194.749 100.366 194.555 100.304 194.355 100.24C194.159 100.176 193.965 100.104 193.773 100.024C193.585 99.94 193.417 99.836 193.269 99.712C193.121 99.588 193.001 99.436 192.909 99.256C192.821 99.072 192.777 98.85 192.777 98.59C192.777 98.358 192.825 98.136 192.921 97.924C193.017 97.708 193.157 97.52 193.341 97.36C193.525 97.196 193.751 97.066 194.019 96.97C194.287 96.874 194.593 96.826 194.937 96.826C195.337 96.826 195.695 96.89 196.011 97.018C196.331 97.142 196.607 97.314 196.839 97.534L196.599 97.924ZM165.628 116.022V117H160.75V108.402H161.908V116.022H165.628ZM169.291 110.826C169.735 110.826 170.135 110.9 170.491 111.048C170.847 111.196 171.151 111.406 171.403 111.678C171.655 111.95 171.847 112.28 171.979 112.668C172.115 113.052 172.183 113.482 172.183 113.958C172.183 114.438 172.115 114.87 171.979 115.254C171.847 115.638 171.655 115.966 171.403 116.238C171.151 116.51 170.847 116.72 170.491 116.868C170.135 117.012 169.735 117.084 169.291 117.084C168.843 117.084 168.439 117.012 168.079 116.868C167.723 116.72 167.419 116.51 167.167 116.238C166.915 115.966 166.721 115.638 166.585 115.254C166.453 114.87 166.387 114.438 166.387 113.958C166.387 113.482 166.453 113.052 166.585 112.668C166.721 112.28 166.915 111.95 167.167 111.678C167.419 111.406 167.723 111.196 168.079 111.048C168.439 110.9 168.843 110.826 169.291 110.826ZM169.291 116.25C169.891 116.25 170.339 116.05 170.635 115.65C170.931 115.246 171.079 114.684 171.079 113.964C171.079 113.24 170.931 112.676 170.635 112.272C170.339 111.868 169.891 111.666 169.291 111.666C168.987 111.666 168.721 111.718 168.493 111.822C168.269 111.926 168.081 112.076 167.929 112.272C167.781 112.468 167.669 112.71 167.593 112.998C167.521 113.282 167.485 113.604 167.485 113.964C167.485 114.684 167.633 115.246 167.929 115.65C168.229 116.05 168.683 116.25 169.291 116.25ZM177.331 114.264C176.839 114.28 176.419 114.32 176.071 114.384C175.727 114.444 175.445 114.524 175.225 114.624C175.009 114.724 174.851 114.842 174.751 114.978C174.655 115.114 174.607 115.266 174.607 115.434C174.607 115.594 174.633 115.732 174.685 115.848C174.737 115.964 174.807 116.06 174.895 116.136C174.987 116.208 175.093 116.262 175.213 116.298C175.337 116.33 175.469 116.346 175.609 116.346C175.797 116.346 175.969 116.328 176.125 116.292C176.281 116.252 176.427 116.196 176.563 116.124C176.703 116.052 176.835 115.966 176.959 115.866C177.087 115.766 177.211 115.652 177.331 115.524V114.264ZM173.881 111.78C174.217 111.456 174.579 111.214 174.967 111.054C175.355 110.894 175.785 110.814 176.257 110.814C176.597 110.814 176.899 110.87 177.163 110.982C177.427 111.094 177.649 111.25 177.829 111.45C178.009 111.65 178.145 111.892 178.237 112.176C178.329 112.46 178.375 112.772 178.375 113.112V117H177.901C177.797 117 177.717 116.984 177.661 116.952C177.605 116.916 177.561 116.848 177.529 116.748L177.409 116.172C177.249 116.32 177.093 116.452 176.941 116.568C176.789 116.68 176.629 116.776 176.461 116.856C176.293 116.932 176.113 116.99 175.921 117.03C175.733 117.074 175.523 117.096 175.291 117.096C175.055 117.096 174.833 117.064 174.625 117C174.417 116.932 174.235 116.832 174.079 116.7C173.927 116.568 173.805 116.402 173.713 116.202C173.625 115.998 173.581 115.758 173.581 115.482C173.581 115.242 173.647 115.012 173.779 114.792C173.911 114.568 174.125 114.37 174.421 114.198C174.717 114.026 175.103 113.886 175.579 113.778C176.055 113.666 176.639 113.602 177.331 113.586V113.112C177.331 112.64 177.229 112.284 177.025 112.044C176.821 111.8 176.523 111.678 176.131 111.678C175.867 111.678 175.645 111.712 175.465 111.78C175.289 111.844 175.135 111.918 175.003 112.002C174.875 112.082 174.763 112.156 174.667 112.224C174.575 112.288 174.483 112.32 174.391 112.32C174.319 112.32 174.257 112.302 174.205 112.266C174.153 112.226 174.109 112.178 174.073 112.122L173.881 111.78ZM181.51 111.804C181.642 111.656 181.782 111.522 181.93 111.402C182.078 111.282 182.234 111.18 182.398 111.096C182.566 111.008 182.742 110.942 182.926 110.898C183.114 110.85 183.316 110.826 183.532 110.826C183.864 110.826 184.156 110.882 184.408 110.994C184.664 111.102 184.876 111.258 185.044 111.462C185.216 111.662 185.346 111.904 185.434 112.188C185.522 112.472 185.566 112.786 185.566 113.13V117H184.492V113.13C184.492 112.67 184.386 112.314 184.174 112.062C183.966 111.806 183.648 111.678 183.22 111.678C182.904 111.678 182.608 111.754 182.332 111.906C182.06 112.058 181.808 112.264 181.576 112.524V117H180.502V110.922H181.144C181.296 110.922 181.39 110.996 181.426 111.144L181.51 111.804Z" fill="#212121"/>
<g filter="url(#filter3_d_13148_37785)">
<path d="M243 43C243 34.1634 250.163 27 259 27H279C287.837 27 295 34.1634 295 43V63C295 71.8366 287.837 79 279 79H259C250.163 79 243 71.8366 243 63V43Z" fill="white" fill-opacity="0.5" shape-rendering="crispEdges"/>
<path d="M279 26.5C288.113 26.5 295.5 33.8873 295.5 43V63C295.5 72.1127 288.113 79.5 279 79.5H259C249.887 79.5 242.5 72.1127 242.5 63V43C242.5 33.8873 249.887 26.5 259 26.5H279Z" stroke="#EEEAFF" shape-rendering="crispEdges"/>
<path d="M257.333 47.3299C257.333 45.9066 258.418 44.3316 259.748 43.8299L265.558 41.6482C266.515 41.2865 268.101 41.2865 269.058 41.6482L274.856 43.8299C275.965 44.2499 276.91 45.4165 277.201 46.6065H268.685C268.428 46.6065 268.195 46.6182 267.973 46.6182C265.815 46.7465 265.255 47.5282 265.255 49.9899V56.3249C265.255 59.0199 265.943 59.7082 268.685 59.7082H275.591C275.486 59.8016 275.381 59.8832 275.276 59.9766L270.295 63.7099C268.65 64.9349 265.966 64.9349 264.31 63.7099L259.316 59.9766C258.22 59.1599 257.321 57.3515 257.321 55.9865V52.1132" stroke="#3F21B5" stroke-width="1.5" stroke-linecap="round" stroke-linejoin="round"/>
<path d="M265.267 52.0898H280.667" stroke="#3F21B5" stroke-width="1.5" stroke-miterlimit="10" stroke-linecap="round" stroke-linejoin="round"/>
<path d="M280.667 49.9897V56.4647C280.643 59.0547 279.932 59.6964 277.237 59.6964H268.697C265.955 59.6964 265.267 59.008 265.267 56.313V49.9781C265.267 47.5281 265.827 46.7464 267.985 46.6064C268.207 46.6064 268.44 46.5947 268.697 46.5947H277.237C279.978 46.6064 280.667 47.2831 280.667 49.9897Z" stroke="#3F21B5" stroke-width="1.5" stroke-linecap="round" stroke-linejoin="round"/>
<path d="M268.206 56.8032H269.758" stroke="#3F21B5" stroke-width="1.5" stroke-miterlimit="10" stroke-linecap="round" stroke-linejoin="round"/>
<path d="M272.208 56.8032H276.023" stroke="#3F21B5" stroke-width="1.5" stroke-miterlimit="10" stroke-linecap="round" stroke-linejoin="round"/>
</g>
<path d="M238.349 102.022V103H233.471V94.402H234.629V102.022H238.349ZM242.012 96.826C242.456 96.826 242.856 96.9 243.212 97.048C243.568 97.196 243.872 97.406 244.124 97.678C244.376 97.95 244.568 98.28 244.7 98.668C244.836 99.052 244.904 99.482 244.904 99.958C244.904 100.438 244.836 100.87 244.7 101.254C244.568 101.638 244.376 101.966 244.124 102.238C243.872 102.51 243.568 102.72 243.212 102.868C242.856 103.012 242.456 103.084 242.012 103.084C241.564 103.084 241.16 103.012 240.8 102.868C240.444 102.72 240.14 102.51 239.888 102.238C239.636 101.966 239.442 101.638 239.306 101.254C239.174 100.87 239.108 100.438 239.108 99.958C239.108 99.482 239.174 99.052 239.306 98.668C239.442 98.28 239.636 97.95 239.888 97.678C240.14 97.406 240.444 97.196 240.8 97.048C241.16 96.9 241.564 96.826 242.012 96.826ZM242.012 102.25C242.612 102.25 243.06 102.05 243.356 101.65C243.652 101.246 243.8 100.684 243.8 99.964C243.8 99.24 243.652 98.676 243.356 98.272C243.06 97.868 242.612 97.666 242.012 97.666C241.708 97.666 241.442 97.718 241.214 97.822C240.99 97.926 240.802 98.076 240.65 98.272C240.502 98.468 240.39 98.71 240.314 98.998C240.242 99.282 240.206 99.604 240.206 99.964C240.206 100.684 240.354 101.246 240.65 101.65C240.95 102.05 241.404 102.25 242.012 102.25ZM250.052 100.264C249.56 100.28 249.14 100.32 248.792 100.384C248.448 100.444 248.166 100.524 247.946 100.624C247.73 100.724 247.572 100.842 247.472 100.978C247.376 101.114 247.328 101.266 247.328 101.434C247.328 101.594 247.354 101.732 247.406 101.848C247.458 101.964 247.528 102.06 247.616 102.136C247.708 102.208 247.814 102.262 247.934 102.298C248.058 102.33 248.19 102.346 248.33 102.346C248.518 102.346 248.69 102.328 248.846 102.292C249.002 102.252 249.148 102.196 249.284 102.124C249.424 102.052 249.556 101.966 249.68 101.866C249.808 101.766 249.932 101.652 250.052 101.524V100.264ZM246.602 97.78C246.938 97.456 247.3 97.214 247.688 97.054C248.076 96.894 248.506 96.814 248.978 96.814C249.318 96.814 249.62 96.87 249.884 96.982C250.148 97.094 250.37 97.25 250.55 97.45C250.73 97.65 250.866 97.892 250.958 98.176C251.05 98.46 251.096 98.772 251.096 99.112V103H250.622C250.518 103 250.438 102.984 250.382 102.952C250.326 102.916 250.282 102.848 250.25 102.748L250.13 102.172C249.97 102.32 249.814 102.452 249.662 102.568C249.51 102.68 249.35 102.776 249.182 102.856C249.014 102.932 248.834 102.99 248.642 103.03C248.454 103.074 248.244 103.096 248.012 103.096C247.776 103.096 247.554 103.064 247.346 103C247.138 102.932 246.956 102.832 246.8 102.7C246.648 102.568 246.526 102.402 246.434 102.202C246.346 101.998 246.302 101.758 246.302 101.482C246.302 101.242 246.368 101.012 246.5 100.792C246.632 100.568 246.846 100.37 247.142 100.198C247.438 100.026 247.824 99.886 248.3 99.778C248.776 99.666 249.36 99.602 250.052 99.586V99.112C250.052 98.64 249.95 98.284 249.746 98.044C249.542 97.8 249.244 97.678 248.852 97.678C248.588 97.678 248.366 97.712 248.186 97.78C248.01 97.844 247.856 97.918 247.724 98.002C247.596 98.082 247.484 98.156 247.388 98.224C247.296 98.288 247.204 98.32 247.112 98.32C247.04 98.32 246.978 98.302 246.926 98.266C246.874 98.226 246.83 98.178 246.794 98.122L246.602 97.78ZM254.231 97.804C254.363 97.656 254.503 97.522 254.651 97.402C254.799 97.282 254.955 97.18 255.119 97.096C255.287 97.008 255.463 96.942 255.647 96.898C255.835 96.85 256.037 96.826 256.253 96.826C256.585 96.826 256.877 96.882 257.129 96.994C257.385 97.102 257.597 97.258 257.765 97.462C257.937 97.662 258.067 97.904 258.155 98.188C258.243 98.472 258.287 98.786 258.287 99.13V103H257.213V99.13C257.213 98.67 257.107 98.314 256.895 98.062C256.687 97.806 256.369 97.678 255.941 97.678C255.625 97.678 255.329 97.754 255.053 97.906C254.781 98.058 254.529 98.264 254.297 98.524V103H253.223V96.922H253.865C254.017 96.922 254.111 96.996 254.147 97.144L254.231 97.804ZM268.404 99.808L267.054 96.31C267.014 96.206 266.972 96.086 266.928 95.95C266.884 95.81 266.842 95.662 266.802 95.506C266.718 95.83 266.632 96.1 266.544 96.316L265.194 99.808H268.404ZM270.828 103H269.928C269.824 103 269.74 102.974 269.676 102.922C269.612 102.87 269.564 102.804 269.532 102.724L268.728 100.648H264.87L264.066 102.724C264.042 102.796 263.996 102.86 263.928 102.916C263.86 102.972 263.776 103 263.676 103H262.776L266.214 94.402H267.39L270.828 103ZM274.325 100.03C274.541 100.03 274.731 100 274.895 99.94C275.059 99.88 275.197 99.796 275.309 99.688C275.421 99.58 275.505 99.452 275.561 99.304C275.617 99.152 275.645 98.986 275.645 98.806C275.645 98.434 275.531 98.138 275.303 97.918C275.079 97.698 274.753 97.588 274.325 97.588C273.893 97.588 273.563 97.698 273.335 97.918C273.111 98.138 272.999 98.434 272.999 98.806C272.999 98.986 273.027 99.152 273.083 99.304C273.143 99.452 273.229 99.58 273.341 99.688C273.453 99.796 273.591 99.88 273.755 99.94C273.919 100 274.109 100.03 274.325 100.03ZM276.251 103.33C276.251 103.182 276.209 103.062 276.125 102.97C276.041 102.878 275.927 102.806 275.783 102.754C275.643 102.702 275.479 102.666 275.291 102.646C275.103 102.622 274.903 102.604 274.691 102.592C274.483 102.58 274.271 102.568 274.055 102.556C273.839 102.544 273.631 102.524 273.431 102.496C273.207 102.6 273.023 102.732 272.879 102.892C272.739 103.048 272.669 103.232 272.669 103.444C272.669 103.58 272.703 103.706 272.771 103.822C272.843 103.942 272.951 104.044 273.095 104.128C273.239 104.216 273.419 104.284 273.635 104.332C273.855 104.384 274.113 104.41 274.409 104.41C274.697 104.41 274.955 104.384 275.183 104.332C275.411 104.28 275.603 104.206 275.759 104.11C275.919 104.014 276.041 103.9 276.125 103.768C276.209 103.636 276.251 103.49 276.251 103.33ZM277.337 97.162V97.558C277.337 97.69 277.253 97.774 277.085 97.81L276.395 97.9C276.531 98.164 276.599 98.456 276.599 98.776C276.599 99.072 276.541 99.342 276.425 99.586C276.313 99.826 276.157 100.032 275.957 100.204C275.757 100.376 275.517 100.508 275.237 100.6C274.957 100.692 274.653 100.738 274.325 100.738C274.041 100.738 273.773 100.704 273.521 100.636C273.393 100.716 273.295 100.802 273.227 100.894C273.159 100.982 273.125 101.072 273.125 101.164C273.125 101.308 273.183 101.418 273.299 101.494C273.419 101.566 273.575 101.618 273.767 101.65C273.959 101.682 274.177 101.702 274.421 101.71C274.669 101.718 274.921 101.732 275.177 101.752C275.437 101.768 275.689 101.798 275.933 101.842C276.181 101.886 276.401 101.958 276.593 102.058C276.785 102.158 276.939 102.296 277.055 102.472C277.175 102.648 277.235 102.876 277.235 103.156C277.235 103.416 277.169 103.668 277.037 103.912C276.909 104.156 276.723 104.372 276.479 104.56C276.235 104.752 275.935 104.904 275.579 105.016C275.227 105.132 274.829 105.19 274.385 105.19C273.941 105.19 273.553 105.146 273.221 105.058C272.889 104.97 272.613 104.852 272.393 104.704C272.173 104.556 272.007 104.384 271.895 104.188C271.787 103.996 271.733 103.794 271.733 103.582C271.733 103.282 271.827 103.028 272.015 102.82C272.203 102.612 272.461 102.446 272.789 102.322C272.609 102.242 272.465 102.136 272.357 102.004C272.253 101.868 272.201 101.686 272.201 101.458C272.201 101.37 272.217 101.28 272.249 101.188C272.281 101.092 272.329 100.998 272.393 100.906C272.461 100.81 272.543 100.72 272.639 100.636C272.735 100.552 272.847 100.478 272.975 100.414C272.675 100.246 272.441 100.024 272.273 99.748C272.105 99.468 272.021 99.144 272.021 98.776C272.021 98.48 272.077 98.212 272.189 97.972C272.305 97.728 272.465 97.522 272.669 97.354C272.873 97.182 273.115 97.05 273.395 96.958C273.679 96.866 273.989 96.82 274.325 96.82C274.589 96.82 274.835 96.85 275.063 96.91C275.291 96.966 275.499 97.05 275.687 97.162H277.337ZM282.236 100.264C281.744 100.28 281.324 100.32 280.976 100.384C280.632 100.444 280.35 100.524 280.13 100.624C279.914 100.724 279.756 100.842 279.656 100.978C279.56 101.114 279.512 101.266 279.512 101.434C279.512 101.594 279.538 101.732 279.59 101.848C279.642 101.964 279.712 102.06 279.8 102.136C279.892 102.208 279.998 102.262 280.118 102.298C280.242 102.33 280.374 102.346 280.514 102.346C280.702 102.346 280.874 102.328 281.03 102.292C281.186 102.252 281.332 102.196 281.468 102.124C281.608 102.052 281.74 101.966 281.864 101.866C281.992 101.766 282.116 101.652 282.236 101.524V100.264ZM278.786 97.78C279.122 97.456 279.484 97.214 279.872 97.054C280.26 96.894 280.69 96.814 281.162 96.814C281.502 96.814 281.804 96.87 282.068 96.982C282.332 97.094 282.554 97.25 282.734 97.45C282.914 97.65 283.05 97.892 283.142 98.176C283.234 98.46 283.28 98.772 283.28 99.112V103H282.806C282.702 103 282.622 102.984 282.566 102.952C282.51 102.916 282.466 102.848 282.434 102.748L282.314 102.172C282.154 102.32 281.998 102.452 281.846 102.568C281.694 102.68 281.534 102.776 281.366 102.856C281.198 102.932 281.018 102.99 280.826 103.03C280.638 103.074 280.428 103.096 280.196 103.096C279.96 103.096 279.738 103.064 279.53 103C279.322 102.932 279.14 102.832 278.984 102.7C278.832 102.568 278.71 102.402 278.618 102.202C278.53 101.998 278.486 101.758 278.486 101.482C278.486 101.242 278.552 101.012 278.684 100.792C278.816 100.568 279.03 100.37 279.326 100.198C279.622 100.026 280.008 99.886 280.484 99.778C280.96 99.666 281.544 99.602 282.236 99.586V99.112C282.236 98.64 282.134 98.284 281.93 98.044C281.726 97.8 281.428 97.678 281.036 97.678C280.772 97.678 280.55 97.712 280.37 97.78C280.194 97.844 280.04 97.918 279.908 98.002C279.78 98.082 279.668 98.156 279.572 98.224C279.48 98.288 279.388 98.32 279.296 98.32C279.224 98.32 279.162 98.302 279.11 98.266C279.058 98.226 279.014 98.178 278.978 98.122L278.786 97.78ZM286.535 96.922V103H285.467V96.922H286.535ZM286.763 95.014C286.763 95.118 286.741 95.216 286.697 95.308C286.657 95.396 286.601 95.476 286.529 95.548C286.461 95.616 286.379 95.67 286.283 95.71C286.191 95.75 286.093 95.77 285.989 95.77C285.885 95.77 285.787 95.75 285.695 95.71C285.607 95.67 285.529 95.616 285.461 95.548C285.393 95.476 285.339 95.396 285.299 95.308C285.259 95.216 285.239 95.118 285.239 95.014C285.239 94.91 285.259 94.812 285.299 94.72C285.339 94.624 285.393 94.542 285.461 94.474C285.529 94.402 285.607 94.346 285.695 94.306C285.787 94.266 285.885 94.246 285.989 94.246C286.093 94.246 286.191 94.266 286.283 94.306C286.379 94.346 286.461 94.402 286.529 94.474C286.601 94.542 286.657 94.624 286.697 94.72C286.741 94.812 286.763 94.91 286.763 95.014ZM289.797 97.804C289.929 97.656 290.069 97.522 290.217 97.402C290.365 97.282 290.521 97.18 290.685 97.096C290.853 97.008 291.029 96.942 291.213 96.898C291.401 96.85 291.603 96.826 291.819 96.826C292.151 96.826 292.443 96.882 292.695 96.994C292.951 97.102 293.163 97.258 293.331 97.462C293.503 97.662 293.633 97.904 293.721 98.188C293.809 98.472 293.853 98.786 293.853 99.13V103H292.779V99.13C292.779 98.67 292.673 98.314 292.461 98.062C292.253 97.806 291.935 97.678 291.507 97.678C291.191 97.678 290.895 97.754 290.619 97.906C290.347 98.058 290.095 98.264 289.863 98.524V103H288.789V96.922H289.431C289.583 96.922 289.677 96.996 289.713 97.144L289.797 97.804ZM299.521 97.924C299.473 98.012 299.399 98.056 299.299 98.056C299.239 98.056 299.171 98.034 299.095 97.99C299.019 97.946 298.925 97.898 298.813 97.846C298.705 97.79 298.575 97.74 298.423 97.696C298.271 97.648 298.091 97.624 297.883 97.624C297.703 97.624 297.541 97.648 297.397 97.696C297.253 97.74 297.129 97.802 297.025 97.882C296.925 97.962 296.847 98.056 296.791 98.164C296.739 98.268 296.713 98.382 296.713 98.506C296.713 98.662 296.757 98.792 296.845 98.896C296.937 99 297.057 99.09 297.205 99.166C297.353 99.242 297.521 99.31 297.709 99.37C297.897 99.426 298.089 99.488 298.285 99.556C298.485 99.62 298.679 99.692 298.867 99.772C299.055 99.852 299.223 99.952 299.371 100.072C299.519 100.192 299.637 100.34 299.725 100.516C299.817 100.688 299.863 100.896 299.863 101.14C299.863 101.42 299.813 101.68 299.713 101.92C299.613 102.156 299.465 102.362 299.269 102.538C299.073 102.71 298.833 102.846 298.549 102.946C298.265 103.046 297.937 103.096 297.565 103.096C297.141 103.096 296.757 103.028 296.413 102.892C296.069 102.752 295.777 102.574 295.537 102.358L295.789 101.95C295.821 101.898 295.859 101.858 295.903 101.83C295.947 101.802 296.003 101.788 296.071 101.788C296.143 101.788 296.219 101.816 296.299 101.872C296.379 101.928 296.475 101.99 296.587 102.058C296.703 102.126 296.843 102.188 297.007 102.244C297.171 102.3 297.375 102.328 297.619 102.328C297.827 102.328 298.009 102.302 298.165 102.25C298.321 102.194 298.451 102.12 298.555 102.028C298.659 101.936 298.735 101.83 298.783 101.71C298.835 101.59 298.861 101.462 298.861 101.326C298.861 101.158 298.815 101.02 298.723 100.912C298.635 100.8 298.517 100.706 298.369 100.63C298.221 100.55 298.051 100.482 297.859 100.426C297.671 100.366 297.477 100.304 297.277 100.24C297.081 100.176 296.887 100.104 296.695 100.024C296.507 99.94 296.339 99.836 296.191 99.712C296.043 99.588 295.923 99.436 295.831 99.256C295.743 99.072 295.699 98.85 295.699 98.59C295.699 98.358 295.747 98.136 295.843 97.924C295.939 97.708 296.079 97.52 296.263 97.36C296.447 97.196 296.673 97.066 296.941 96.97C297.209 96.874 297.515 96.826 297.859 96.826C298.259 96.826 298.617 96.89 298.933 97.018C299.253 97.142 299.529 97.314 299.761 97.534L299.521 97.924ZM303.538 103.096C303.058 103.096 302.688 102.962 302.428 102.694C302.172 102.426 302.044 102.04 302.044 101.536V97.816H301.312C301.248 97.816 301.194 97.798 301.15 97.762C301.106 97.722 301.084 97.662 301.084 97.582V97.156L302.08 97.03L302.326 95.152C302.338 95.092 302.364 95.044 302.404 95.008C302.448 94.968 302.504 94.948 302.572 94.948H303.112V97.042H304.87V97.816H303.112V101.464C303.112 101.72 303.174 101.91 303.298 102.034C303.422 102.158 303.582 102.22 303.778 102.22C303.89 102.22 303.986 102.206 304.066 102.178C304.15 102.146 304.222 102.112 304.282 102.076C304.342 102.04 304.392 102.008 304.432 101.98C304.476 101.948 304.514 101.932 304.546 101.932C304.602 101.932 304.652 101.966 304.696 102.034L305.008 102.544C304.824 102.716 304.602 102.852 304.342 102.952C304.082 103.048 303.814 103.096 303.538 103.096ZM251.254 109.746C251.218 109.806 251.178 109.852 251.134 109.884C251.094 109.912 251.044 109.926 250.984 109.926C250.916 109.926 250.836 109.892 250.744 109.824C250.652 109.756 250.536 109.682 250.396 109.602C250.26 109.518 250.094 109.442 249.898 109.374C249.706 109.306 249.472 109.272 249.196 109.272C248.936 109.272 248.706 109.308 248.506 109.38C248.31 109.448 248.144 109.542 248.008 109.662C247.876 109.782 247.776 109.924 247.708 110.088C247.64 110.248 247.606 110.422 247.606 110.61C247.606 110.85 247.664 111.05 247.78 111.21C247.9 111.366 248.056 111.5 248.248 111.612C248.444 111.724 248.664 111.822 248.908 111.906C249.156 111.986 249.408 112.07 249.664 112.158C249.924 112.246 250.176 112.346 250.42 112.458C250.668 112.566 250.888 112.704 251.08 112.872C251.276 113.04 251.432 113.246 251.548 113.49C251.668 113.734 251.728 114.034 251.728 114.39C251.728 114.766 251.664 115.12 251.536 115.452C251.408 115.78 251.22 116.066 250.972 116.31C250.728 116.554 250.426 116.746 250.066 116.886C249.71 117.026 249.304 117.096 248.848 117.096C248.288 117.096 247.78 116.996 247.324 116.796C246.868 116.592 246.478 116.318 246.154 115.974L246.49 115.422C246.522 115.378 246.56 115.342 246.604 115.314C246.652 115.282 246.704 115.266 246.76 115.266C246.812 115.266 246.87 115.288 246.934 115.332C247.002 115.372 247.078 115.424 247.162 115.488C247.246 115.552 247.342 115.622 247.45 115.698C247.558 115.774 247.68 115.844 247.816 115.908C247.956 115.972 248.114 116.026 248.29 116.07C248.466 116.11 248.664 116.13 248.884 116.13C249.16 116.13 249.406 116.092 249.622 116.016C249.838 115.94 250.02 115.834 250.168 115.698C250.32 115.558 250.436 115.392 250.516 115.2C250.596 115.008 250.636 114.794 250.636 114.558C250.636 114.298 250.576 114.086 250.456 113.922C250.34 113.754 250.186 113.614 249.994 113.502C249.802 113.39 249.582 113.296 249.334 113.22C249.086 113.14 248.834 113.06 248.578 112.98C248.322 112.896 248.07 112.8 247.822 112.692C247.574 112.584 247.354 112.444 247.162 112.272C246.97 112.1 246.814 111.886 246.694 111.63C246.578 111.37 246.52 111.05 246.52 110.67C246.52 110.366 246.578 110.072 246.694 109.788C246.814 109.504 246.986 109.252 247.21 109.032C247.438 108.812 247.716 108.636 248.044 108.504C248.376 108.372 248.756 108.306 249.184 108.306C249.664 108.306 250.1 108.382 250.492 108.534C250.888 108.686 251.236 108.906 251.536 109.194L251.254 109.746ZM257.652 113.298C257.652 113.05 257.616 112.824 257.544 112.62C257.476 112.412 257.374 112.234 257.238 112.086C257.106 111.934 256.944 111.818 256.752 111.738C256.56 111.654 256.342 111.612 256.098 111.612C255.586 111.612 255.18 111.762 254.88 112.062C254.584 112.358 254.4 112.77 254.328 113.298H257.652ZM258.516 116.148C258.384 116.308 258.226 116.448 258.042 116.568C257.858 116.684 257.66 116.78 257.448 116.856C257.24 116.932 257.024 116.988 256.8 117.024C256.576 117.064 256.354 117.084 256.134 117.084C255.714 117.084 255.326 117.014 254.97 116.874C254.618 116.73 254.312 116.522 254.052 116.25C253.796 115.974 253.596 115.634 253.452 115.23C253.308 114.826 253.236 114.362 253.236 113.838C253.236 113.414 253.3 113.018 253.428 112.65C253.56 112.282 253.748 111.964 253.992 111.696C254.236 111.424 254.534 111.212 254.886 111.06C255.238 110.904 255.634 110.826 256.074 110.826C256.438 110.826 256.774 110.888 257.082 111.012C257.394 111.132 257.662 111.308 257.886 111.54C258.114 111.768 258.292 112.052 258.42 112.392C258.548 112.728 258.612 113.112 258.612 113.544C258.612 113.712 258.594 113.824 258.558 113.88C258.522 113.936 258.454 113.964 258.354 113.964H254.292C254.304 114.348 254.356 114.682 254.448 114.966C254.544 115.25 254.676 115.488 254.844 115.68C255.012 115.868 255.212 116.01 255.444 116.106C255.676 116.198 255.936 116.244 256.224 116.244C256.492 116.244 256.722 116.214 256.914 116.154C257.11 116.09 257.278 116.022 257.418 115.95C257.558 115.878 257.674 115.812 257.766 115.752C257.862 115.688 257.944 115.656 258.012 115.656C258.1 115.656 258.168 115.69 258.216 115.758L258.516 116.148ZM264.654 112.002C264.622 112.046 264.59 112.08 264.558 112.104C264.526 112.128 264.482 112.14 264.426 112.14C264.366 112.14 264.3 112.116 264.228 112.068C264.156 112.016 264.066 111.96 263.958 111.9C263.854 111.84 263.724 111.786 263.568 111.738C263.416 111.686 263.228 111.66 263.004 111.66C262.704 111.66 262.44 111.714 262.212 111.822C261.984 111.926 261.792 112.078 261.636 112.278C261.484 112.478 261.368 112.72 261.288 113.004C261.212 113.288 261.174 113.606 261.174 113.958C261.174 114.326 261.216 114.654 261.3 114.942C261.384 115.226 261.502 115.466 261.654 115.662C261.81 115.854 261.996 116.002 262.212 116.106C262.432 116.206 262.678 116.256 262.95 116.256C263.21 116.256 263.424 116.226 263.592 116.166C263.76 116.102 263.898 116.032 264.006 115.956C264.118 115.88 264.21 115.812 264.282 115.752C264.358 115.688 264.432 115.656 264.504 115.656C264.592 115.656 264.66 115.69 264.708 115.758L265.008 116.148C264.876 116.312 264.726 116.452 264.558 116.568C264.39 116.684 264.208 116.782 264.012 116.862C263.82 116.938 263.618 116.994 263.406 117.03C263.194 117.066 262.978 117.084 262.758 117.084C262.378 117.084 262.024 117.014 261.696 116.874C261.372 116.734 261.09 116.532 260.85 116.268C260.61 116 260.422 115.672 260.286 115.284C260.15 114.896 260.082 114.454 260.082 113.958C260.082 113.506 260.144 113.088 260.268 112.704C260.396 112.32 260.58 111.99 260.82 111.714C261.064 111.434 261.362 111.216 261.714 111.06C262.07 110.904 262.478 110.826 262.938 110.826C263.366 110.826 263.742 110.896 264.066 111.036C264.394 111.172 264.684 111.366 264.936 111.618L264.654 112.002ZM271.653 110.922V117H271.017C270.865 117 270.769 116.926 270.729 116.778L270.645 116.124C270.381 116.416 270.085 116.652 269.757 116.832C269.429 117.008 269.053 117.096 268.629 117.096C268.297 117.096 268.003 117.042 267.747 116.934C267.495 116.822 267.283 116.666 267.111 116.466C266.939 116.266 266.809 116.024 266.721 115.74C266.637 115.456 266.595 115.142 266.595 114.798V110.922H267.663V114.798C267.663 115.258 267.767 115.614 267.975 115.866C268.187 116.118 268.509 116.244 268.941 116.244C269.257 116.244 269.551 116.17 269.823 116.022C270.099 115.87 270.353 115.662 270.585 115.398V110.922H271.653ZM274.86 112.14C275.052 111.724 275.288 111.4 275.568 111.168C275.848 110.932 276.19 110.814 276.594 110.814C276.722 110.814 276.844 110.828 276.96 110.856C277.08 110.884 277.186 110.928 277.278 110.988L277.2 111.786C277.176 111.886 277.116 111.936 277.02 111.936C276.964 111.936 276.882 111.924 276.774 111.9C276.666 111.876 276.544 111.864 276.408 111.864C276.216 111.864 276.044 111.892 275.892 111.948C275.744 112.004 275.61 112.088 275.49 112.2C275.374 112.308 275.268 112.444 275.172 112.608C275.08 112.768 274.996 112.952 274.92 113.16V117H273.846V110.922H274.458C274.574 110.922 274.654 110.944 274.698 110.988C274.742 111.032 274.772 111.108 274.788 111.216L274.86 112.14ZM279.845 110.922V117H278.777V110.922H279.845ZM280.073 109.014C280.073 109.118 280.051 109.216 280.007 109.308C279.967 109.396 279.911 109.476 279.839 109.548C279.771 109.616 279.689 109.67 279.593 109.71C279.501 109.75 279.403 109.77 279.299 109.77C279.195 109.77 279.097 109.75 279.005 109.71C278.917 109.67 278.839 109.616 278.771 109.548C278.703 109.476 278.649 109.396 278.609 109.308C278.569 109.216 278.549 109.118 278.549 109.014C278.549 108.91 278.569 108.812 278.609 108.72C278.649 108.624 278.703 108.542 278.771 108.474C278.839 108.402 278.917 108.346 279.005 108.306C279.097 108.266 279.195 108.246 279.299 108.246C279.403 108.246 279.501 108.266 279.593 108.306C279.689 108.346 279.771 108.402 279.839 108.474C279.911 108.542 279.967 108.624 280.007 108.72C280.051 108.812 280.073 108.91 280.073 109.014ZM283.966 117.096C283.486 117.096 283.116 116.962 282.856 116.694C282.6 116.426 282.472 116.04 282.472 115.536V111.816H281.74C281.676 111.816 281.622 111.798 281.578 111.762C281.534 111.722 281.512 111.662 281.512 111.582V111.156L282.508 111.03L282.754 109.152C282.766 109.092 282.792 109.044 282.832 109.008C282.876 108.968 282.932 108.948 283 108.948H283.54V111.042H285.298V111.816H283.54V115.464C283.54 115.72 283.602 115.91 283.726 116.034C283.85 116.158 284.01 116.22 284.206 116.22C284.318 116.22 284.414 116.206 284.494 116.178C284.578 116.146 284.65 116.112 284.71 116.076C284.77 116.04 284.82 116.008 284.86 115.98C284.904 115.948 284.942 115.932 284.974 115.932C285.03 115.932 285.08 115.966 285.124 116.034L285.436 116.544C285.252 116.716 285.03 116.852 284.77 116.952C284.51 117.048 284.242 117.096 283.966 117.096ZM292.145 110.922L288.755 118.794C288.719 118.874 288.673 118.938 288.617 118.986C288.565 119.034 288.483 119.058 288.371 119.058H287.579L288.689 116.646L286.181 110.922H287.105C287.197 110.922 287.269 110.946 287.321 110.994C287.377 111.038 287.415 111.088 287.435 111.144L289.061 114.972C289.125 115.14 289.179 115.316 289.223 115.5C289.279 115.312 289.339 115.134 289.403 114.966L290.981 111.144C291.005 111.08 291.045 111.028 291.101 110.988C291.161 110.944 291.227 110.922 291.299 110.922H292.145Z" fill="#212121"/>
</g>
<defs>
<filter id="filter0_d_13148_37785" x="0" y="0" width="346" height="154" filterUnits="userSpaceOnUse" color-interpolation-filters="sRGB">
<feFlood flood-opacity="0" result="BackgroundImageFix"/>
<feColorMatrix in="SourceAlpha" type="matrix" values="0 0 0 0 0 0 0 0 0 0 0 0 0 0 0 0 0 0 127 0" result="hardAlpha"/>
<feOffset dy="6"/>
<feGaussianBlur stdDeviation="8"/>
<feComposite in2="hardAlpha" operator="out"/>
<feColorMatrix type="matrix" values="0 0 0 0 0 0 0 0 0 0 0 0 0 0 0 0 0 0 0.25 0"/>
<feBlend mode="normal" in2="BackgroundImageFix" result="effect1_dropShadow_13148_37785"/>
<feBlend mode="normal" in="SourceGraphic" in2="effect1_dropShadow_13148_37785" result="shape"/>
</filter>
<filter id="filter1_d_13148_37785" x="38" y="20" width="78" height="78" filterUnits="userSpaceOnUse" color-interpolation-filters="sRGB">
<feFlood flood-opacity="0" result="BackgroundImageFix"/>
<feColorMatrix in="SourceAlpha" type="matrix" values="0 0 0 0 0 0 0 0 0 0 0 0 0 0 0 0 0 0 127 0" result="hardAlpha"/>
<feOffset dy="6"/>
<feGaussianBlur stdDeviation="6"/>
<feComposite in2="hardAlpha" operator="out"/>
<feColorMatrix type="matrix" values="0 0 0 0 0.34902 0 0 0 0 0.180392 0 0 0 0 1 0 0 0 0.06 0"/>
<feBlend mode="normal" in2="BackgroundImageFix" result="effect1_dropShadow_13148_37785"/>
<feBlend mode="normal" in="SourceGraphic" in2="effect1_dropShadow_13148_37785" result="shape"/>
</filter>
<filter id="filter2_d_13148_37785" x="134" y="20" width="78" height="78" filterUnits="userSpaceOnUse" color-interpolation-filters="sRGB">
<feFlood flood-opacity="0" result="BackgroundImageFix"/>
<feColorMatrix in="SourceAlpha" type="matrix" values="0 0 0 0 0 0 0 0 0 0 0 0 0 0 0 0 0 0 127 0" result="hardAlpha"/>
<feOffset dy="6"/>
<feGaussianBlur stdDeviation="6"/>
<feComposite in2="hardAlpha" operator="out"/>
<feColorMatrix type="matrix" values="0 0 0 0 0.34902 0 0 0 0 0.180392 0 0 0 0 1 0 0 0 0.06 0"/>
<feBlend mode="normal" in2="BackgroundImageFix" result="effect1_dropShadow_13148_37785"/>
<feBlend mode="normal" in="SourceGraphic" in2="effect1_dropShadow_13148_37785" result="shape"/>
</filter>
<filter id="filter3_d_13148_37785" x="230" y="20" width="78" height="78" filterUnits="userSpaceOnUse" color-interpolation-filters="sRGB">
<feFlood flood-opacity="0" result="BackgroundImageFix"/>
<feColorMatrix in="SourceAlpha" type="matrix" values="0 0 0 0 0 0 0 0 0 0 0 0 0 0 0 0 0 0 127 0" result="hardAlpha"/>
<feOffset dy="6"/>
<feGaussianBlur stdDeviation="6"/>
<feComposite in2="hardAlpha" operator="out"/>
<feColorMatrix type="matrix" values="0 0 0 0 0.34902 0 0 0 0 0.180392 0 0 0 0 1 0 0 0 0.06 0"/>
<feBlend mode="normal" in2="BackgroundImageFix" result="effect1_dropShadow_13148_37785"/>
<feBlend mode="normal" in="SourceGraphic" in2="effect1_dropShadow_13148_37785" result="shape"/>
</filter>
</defs>
</svg>
