<svg width="28" height="28" viewBox="0 0 28 28" fill="none" xmlns="http://www.w3.org/2000/svg">
<path d="M2.33295 8.3299C2.33295 6.90657 3.41796 5.33157 4.74796 4.8299L10.558 2.6482C11.5146 2.28654 13.1013 2.28654 14.058 2.6482L19.8563 4.8299C20.9646 5.2499 21.9096 6.41654 22.2013 7.60654H13.6846C13.4279 7.60654 13.1946 7.61821 12.9729 7.61821C10.8146 7.74655 10.2546 8.52823 10.2546 10.9899V17.3249C10.2546 20.0199 10.9429 20.7082 13.6846 20.7082H20.5913C20.4863 20.8016 20.3813 20.8832 20.2763 20.9766L15.2946 24.7099C13.6496 25.9349 10.9663 25.9349 9.30961 24.7099L4.31628 20.9766C3.21961 20.1599 2.32129 18.3515 2.32129 16.9865V13.1132" stroke="#3F21B5" stroke-width="1.5" stroke-linecap="round" stroke-linejoin="round"/>
<path d="M10.2666 13.0898H25.6666" stroke="#3F21B5" stroke-width="1.5" stroke-miterlimit="10" stroke-linecap="round" stroke-linejoin="round"/>
<path d="M25.6666 10.9897V17.4647C25.6433 20.0547 24.9316 20.6964 22.2366 20.6964H13.6966C10.9549 20.6964 10.2666 20.008 10.2666 17.313V10.9781C10.2666 8.52805 10.8266 7.74637 12.9849 7.60637C13.2066 7.60637 13.4399 7.59473 13.6966 7.59473H22.2366C24.9783 7.60639 25.6666 8.28306 25.6666 10.9897Z" stroke="#3F21B5" stroke-width="1.5" stroke-linecap="round" stroke-linejoin="round"/>
<path d="M13.2061 17.8032H14.7577" stroke="#3F21B5" stroke-width="1.5" stroke-miterlimit="10" stroke-linecap="round" stroke-linejoin="round"/>
<path d="M17.208 17.8032H21.023" stroke="#3F21B5" stroke-width="1.5" stroke-miterlimit="10" stroke-linecap="round" stroke-linejoin="round"/>
</svg>
