<svg width="32" height="37" viewBox="0 0 32 37" fill="none" xmlns="http://www.w3.org/2000/svg">
<path d="M26.0337 19.6868C25.9907 15.0134 29.9433 12.7398 30.1241 12.634C27.8855 9.43965 24.4159 9.0032 23.1967 8.9684C20.2826 8.66825 17.4559 10.675 15.9715 10.675C14.4574 10.675 12.1715 8.9974 9.70776 9.0467C6.53739 9.09455 3.57147 10.8911 1.9448 13.6809C-1.41224 19.3692 1.09147 27.7285 4.30777 32.3264C5.91665 34.5783 7.79665 37.0926 10.2574 37.0041C12.6648 36.907 13.5641 35.5019 16.4692 35.5019C19.3478 35.5019 20.1922 37.0041 22.7018 36.9476C25.2855 36.907 26.9122 34.6856 28.4648 32.4134C30.3241 29.8324 31.0707 27.2906 31.1004 27.1601C31.0396 27.1398 26.0826 25.2881 26.0337 19.6868Z" fill="white"/>
<path d="M21.2929 5.9437C22.5878 4.35885 23.4737 2.2027 23.2278 0.0146484C21.3537 0.0958484 19.01 1.2834 17.6604 2.83345C16.4663 4.19935 15.3996 6.43815 15.6752 8.54355C17.7804 8.69725 19.9418 7.5039 21.2929 5.9437Z" fill="white"/>
</svg>
